<svg version="1.1" id="Layer_1" xmlns="http://www.w3.org/2000/svg" xmlns:xlink="http://www.w3.org/1999/xlink" x="0px" y="0px"
	 width="100%" viewBox="0 0 60 80" enable-background="new 0 0 60 80" xml:space="preserve">
<path fill="#F5F5F5" opacity="1.000000" stroke="none" 
	d="
M34.000000,1.000000 
	C42.963448,1.000000 51.926899,1.000000 60.945175,1.000000 
	C60.945175,27.666616 60.945175,54.333290 60.940880,80.999985 
	C57.948765,81.000000 54.960945,81.000000 51.486591,80.571175 
	C52.149384,72.274963 54.950825,64.264664 48.960445,56.658195 
	C46.280865,54.537006 43.639977,52.769180 40.999435,50.751427 
	C40.999790,50.501503 41.000107,50.001678 41.272240,49.870857 
	C41.696529,48.825809 41.848679,47.911575 42.042328,46.644375 
	C43.060562,44.511997 44.037308,42.732594 45.300190,40.747414 
	C45.713135,39.375267 45.839943,38.208893 45.978180,36.624298 
	C45.303745,32.310211 46.486729,27.503870 40.990059,25.615234 
	C39.967617,24.853565 38.948242,24.426920 37.743736,23.698666 
	C36.510429,22.276196 35.462246,21.155340 34.392456,20.029606 
	C34.370850,20.024729 34.334679,19.998112 34.342136,19.702581 
	C34.069832,19.145134 33.790070,18.883217 33.739609,18.540295 
	C34.073654,18.044931 34.178402,17.630575 34.435059,17.039137 
	C34.766457,16.428841 34.945934,15.995625 35.335342,15.672146 
	C35.651047,15.178080 35.756821,14.574279 35.904091,13.647426 
	C35.778366,12.508945 35.611141,11.693518 35.426540,10.688843 
	C35.409161,10.499595 35.484844,10.127118 35.653076,9.983814 
	C35.587597,9.537850 35.353882,9.235188 35.063377,8.927672 
	C35.006584,8.922817 34.959606,9.026686 34.963142,8.674173 
	C34.843834,7.872554 34.720997,7.423448 34.660706,6.631547 
	C34.693245,5.593585 34.663239,4.898417 34.733032,3.931981 
	C34.578945,3.438582 34.325058,3.216450 33.994968,2.657319 
	C33.945843,1.880213 33.972919,1.440107 34.000000,1.000000 
M44.483669,48.581627 
	C44.483669,48.581627 44.423077,48.477585 44.483669,48.581627 
z"/>
<path fill="#F6F6F6" opacity="1.000000" stroke="none" 
	d="
M1.000000,39.000000 
	C1.000000,26.428135 1.000000,13.856270 1.000000,1.000000 
	C7.684717,1.000000 14.373446,1.000000 21.408064,1.163847 
	C21.753952,1.327694 21.763853,1.737359 21.669243,1.796375 
	C21.574631,1.855392 21.495483,2.063894 21.262476,2.280996 
	C20.636497,2.985952 20.243526,3.473805 19.648262,3.990006 
	C19.154129,4.047720 18.926935,4.184483 18.561275,4.639568 
	C18.306828,5.232508 18.255495,5.614521 18.097414,6.212141 
	C17.840330,6.710209 17.710690,7.001868 17.234863,7.377153 
	C16.031511,9.178651 15.195042,10.905721 14.147829,12.801983 
	C13.568917,13.781305 13.200748,14.591434 12.640856,15.636566 
	C12.288318,16.242590 12.127503,16.613611 11.734463,17.149086 
	C11.460065,17.432859 11.366118,17.561962 11.386434,17.669474 
	C11.429543,17.897629 11.532160,18.114542 11.603295,18.581055 
	C11.595340,19.164364 11.500258,19.473728 10.993156,19.963539 
	C10.513121,20.884089 10.350897,21.595236 10.160406,22.486923 
	C10.132139,22.667465 9.975967,22.997902 9.755139,23.099051 
	C9.261489,23.402109 9.086156,23.668257 8.978485,24.398756 
	C8.922251,26.130548 8.895843,27.462229 8.714287,29.100454 
	C7.899985,30.571663 7.240829,31.736326 6.361259,33.010807 
	C6.080275,33.270790 5.925800,33.483303 5.976466,33.559612 
	C6.138712,33.803970 6.376939,33.997879 6.678230,34.228600 
	C6.770621,34.245941 6.838686,34.421196 6.741653,34.623329 
	C6.430556,35.216473 6.216492,35.607479 5.668210,36.047478 
	C3.889329,37.064312 2.444664,38.032158 1.000000,39.000000 
z"/>
<path fill="#EEEDED" opacity="1.000000" stroke="none" 
	d="
M1.000000,39.468658 
	C2.444664,38.032158 3.889329,37.064312 5.801486,36.234436 
	C6.846445,36.245579 7.423910,36.118752 7.994402,36.331520 
	C7.066737,37.659950 6.146046,38.648781 5.591476,39.244400 
	C6.087987,42.662975 6.545116,45.810390 7.000394,49.392365 
	C6.529245,54.979248 4.544993,60.236183 8.028286,65.488243 
	C8.359095,67.522255 8.715718,69.181831 8.883222,71.132812 
	C8.106837,73.016418 7.160903,74.580925 7.035276,76.208740 
	C6.914653,77.771698 7.644103,79.400261 8.000000,81.000000 
	C5.687706,81.000000 3.375412,81.000000 1.000000,81.000000 
	C1.000000,67.312492 1.000000,53.624905 1.000000,39.468658 
z"/>
<path fill="#FAF9FA" opacity="1.000000" stroke="none" 
	d="
M29.000000,81.000000 
	C28.250000,81.000000 27.500000,81.000000 26.374247,80.563744 
	C25.998493,78.330902 25.998493,76.534317 25.998493,74.599655 
	C24.203432,74.159584 22.853462,73.828621 21.544870,73.507812 
	C21.840763,72.182419 22.051487,71.238525 22.376181,69.784119 
	C20.161425,70.291603 18.571138,70.655998 16.679722,70.993210 
	C15.629748,70.368996 14.880905,69.771957 14.392132,68.943665 
	C16.459421,67.507843 18.266640,66.303276 20.383583,65.037430 
	C21.110645,64.921494 21.527985,64.866852 22.314953,64.881805 
	C23.431953,64.920403 24.179323,64.889397 25.316919,64.900986 
	C28.108234,64.320473 30.509325,63.697369 32.942230,63.071213 
	C32.974041,63.068161 33.012653,63.017223 33.164936,63.303284 
	C34.274067,63.409214 35.230919,63.229088 36.399323,63.031342 
	C36.610874,63.013725 37.016243,62.887489 37.384842,62.940834 
	C38.492401,63.076687 39.231365,63.159195 39.969154,63.576881 
	C38.976086,65.275429 37.984196,66.638794 36.645218,68.153885 
	C33.661594,68.305611 31.025061,68.305611 28.388527,68.305611 
	C28.186321,68.682503 27.984116,69.059395 27.781908,69.436287 
	C29.280842,70.797173 30.779778,72.158066 32.201836,73.635307 
	C32.124966,73.751663 32.039749,74.016960 31.787346,74.030609 
	C31.373470,74.092445 31.211994,74.140648 30.710037,74.112099 
	C29.884815,74.389946 29.400072,74.744545 28.775295,75.323593 
	C28.681850,75.891335 28.728441,76.234642 28.528826,76.977478 
	C28.521746,78.584671 28.760874,79.792336 29.000000,81.000000 
z"/>
<path fill="#F0F0F1" opacity="1.000000" stroke="none" 
	d="
M48.999134,57.011551 
	C54.950825,64.264664 52.149384,72.274963 51.000027,80.571175 
	C48.299988,81.000000 45.599972,81.000000 42.608322,80.762383 
	C42.229416,80.355583 42.142143,80.186409 42.024452,79.685226 
	C41.939079,78.913986 41.884129,78.474739 41.887077,77.671249 
	C41.952019,76.570854 41.959053,75.834686 41.976643,74.821510 
	C41.994003,74.359802 42.000805,74.175110 42.397301,73.986359 
	C47.309151,73.656830 46.463566,69.522926 46.658089,67.193954 
	C46.821819,65.233704 44.439007,63.060757 43.113060,60.744911 
	C43.042625,60.507854 42.952232,60.021633 43.307526,59.980091 
	C45.441589,58.962883 47.220360,57.987217 48.999134,57.011551 
M45.197395,77.597153 
	C45.201664,77.210297 45.209488,76.823265 45.190052,76.437607 
	C45.189560,76.427780 44.750130,76.422302 44.749321,76.432838 
	C44.719616,76.818008 44.717678,77.205338 45.197395,77.597153 
z"/>
<path fill="#EFEFF0" opacity="1.000000" stroke="none" 
	d="
M16.980852,71.020393 
	C18.571138,70.655998 20.161425,70.291603 22.376181,69.784119 
	C22.051487,71.238525 21.840763,72.182419 21.544870,73.507812 
	C22.853462,73.828621 24.203432,74.159584 25.998493,74.599655 
	C25.998493,76.534317 25.998493,78.330902 25.999247,80.563744 
	C20.977907,81.000000 15.955815,81.000000 10.472813,80.609642 
	C10.949648,78.785538 11.806678,77.289955 12.845565,75.933678 
	C14.145889,74.236092 15.595615,72.652939 16.980852,71.020393 
z"/>
<path fill="#E4E4E5" opacity="1.000000" stroke="none" 
	d="
M16.679722,70.993210 
	C15.595615,72.652939 14.145889,74.236092 12.845565,75.933678 
	C11.806678,77.289955 10.949648,78.785538 10.005951,80.609642 
	C9.555555,81.000000 9.111111,81.000000 8.333333,81.000000 
	C7.644103,79.400261 6.914653,77.771698 7.035276,76.208740 
	C7.160903,74.580925 8.106837,73.016418 9.216158,71.175507 
	C10.524733,70.615143 11.311251,70.303497 12.352071,69.884979 
	C13.114936,69.577049 13.623500,69.375984 14.132063,69.174919 
	C14.880905,69.771957 15.629748,70.368996 16.679722,70.993210 
z"/>
<path fill="#34476E" opacity="1.000000" stroke="none" 
	d="
M28.915333,75.099144 
	C29.400072,74.744545 29.884815,74.389946 30.929588,74.356171 
	C32.449738,75.555084 33.409855,76.433182 34.337650,77.543030 
	C34.238705,78.082733 34.195423,78.393944 34.042908,79.002464 
	C33.606880,79.864349 33.303440,80.432175 33.000000,81.000000 
	C31.933331,81.000000 30.866661,81.000000 29.399996,81.000000 
	C28.760874,79.792336 28.521746,78.584671 28.779762,76.957352 
	C29.156380,76.058182 29.035856,75.578659 28.915333,75.099144 
z"/>
<path fill="#6A3C20" opacity="1.000000" stroke="none" 
	d="
M34.633232,4.203248 
	C34.663239,4.898417 34.693245,5.593585 34.447548,6.636657 
	C33.789417,7.156938 33.406982,7.329315 32.896656,7.523997 
	C32.768761,7.546301 32.513485,7.591542 32.410049,7.331176 
	C32.203228,6.712578 32.099846,6.354346 31.984962,5.676477 
	C31.627468,4.582786 31.281473,3.808732 30.951252,2.695702 
	C30.978018,1.904484 30.989010,1.452242 31.000000,1.000000 
	C31.750000,1.000000 32.500000,1.000000 33.625000,1.000000 
	C33.972919,1.440107 33.945843,1.880213 33.720684,2.650407 
	C33.396904,3.310377 33.271202,3.640260 33.191132,4.184025 
	C33.611568,4.365061 33.986366,4.332215 34.443970,4.317195 
	C34.526775,4.335021 34.633232,4.203248 34.633232,4.203248 
z"/>
<path fill="#B48B63" opacity="1.000000" stroke="none" 
	d="
M21.763853,1.737359 
	C21.763853,1.737359 21.753952,1.327694 21.876976,1.163847 
	C22.750000,1.000000 23.500000,1.000000 24.670826,1.229234 
	C25.394434,1.305646 25.697216,1.152823 26.000000,1.000000 
	C26.444445,1.000000 26.888889,1.000000 27.516750,1.203621 
	C27.706526,1.575693 27.712885,1.744144 27.662422,2.162102 
	C27.612064,2.582083 27.618526,2.752557 27.478233,3.086570 
	C27.597561,3.754593 27.863646,4.259078 27.779947,4.879978 
	C26.941002,4.982645 26.451841,4.968896 25.774096,4.693119 
	C24.746225,4.329228 23.906940,4.227366 23.048422,3.843894 
	C23.018831,3.374393 23.008471,3.186501 22.896620,2.707192 
	C22.451370,2.189636 22.107613,1.963498 21.763853,1.737359 
z"/>
<path fill="#617891" opacity="1.000000" stroke="none" 
	d="
M41.829174,78.035492 
	C41.884129,78.474739 41.939079,78.913986 41.720448,79.703094 
	C40.964573,80.368637 40.482285,80.684319 40.000000,81.000000 
	C39.250000,81.000000 38.500000,81.000000 37.493721,80.711166 
	C37.490086,79.646545 37.742729,78.870758 37.992584,78.014374 
	C37.989792,77.933762 38.007622,77.774612 38.372066,77.844933 
	C39.475662,77.926559 40.214817,77.937866 41.172928,77.969162 
	C41.391884,77.989151 41.829174,78.035492 41.829174,78.035492 
z"/>
<path fill="#42597D" opacity="1.000000" stroke="none" 
	d="
M37.995377,78.094978 
	C37.742729,78.870758 37.490086,79.646545 37.118721,80.711166 
	C35.933331,81.000000 34.866661,81.000000 33.399994,81.000000 
	C33.303440,80.432175 33.606880,79.864349 34.354385,78.929535 
	C35.864090,78.406685 36.929733,78.250832 37.995377,78.094978 
z"/>
<path fill="#694635" opacity="1.000000" stroke="none" 
	d="
M27.624990,2.923031 
	C27.618526,2.752557 27.612064,2.582083 27.927734,2.089660 
	C28.499910,1.511807 28.749956,1.255904 29.000000,1.000000 
	C29.444445,1.000000 29.888889,1.000000 30.666668,1.000000 
	C30.989010,1.452242 30.978018,1.904484 30.542036,2.681755 
	C29.286360,2.978867 28.455675,2.950949 27.624990,2.923031 
z"/>
<path fill="#8196AF" opacity="1.000000" stroke="none" 
	d="
M40.333332,81.000000 
	C40.482285,80.684319 40.964573,80.368637 41.750866,80.035095 
	C42.142143,80.186409 42.229416,80.355583 42.158340,80.762383 
	C41.555553,81.000000 41.111111,81.000000 40.333332,81.000000 
z"/>
<path fill="#7B4E31" opacity="1.000000" stroke="none" 
	d="
M25.750000,1.000000 
	C25.697216,1.152823 25.394434,1.305646 25.045826,1.229234 
	C25.000000,1.000000 25.500000,1.000000 25.750000,1.000000 
z"/>
<path fill="#7B4E31" opacity="1.000000" stroke="none" 
	d="
M28.750000,1.000000 
	C28.749956,1.255904 28.499910,1.511807 27.984554,1.840153 
	C27.712885,1.744144 27.706526,1.575693 27.850084,1.203621 
	C28.000000,1.000000 28.500000,1.000000 28.750000,1.000000 
z"/>
<path fill="#FBFAFA" opacity="1.000000" stroke="none" 
	d="
M48.960445,56.658195 
	C47.220360,57.987217 45.441589,58.962883 43.083878,59.935913 
	C42.504944,59.933281 42.055393,59.856277 42.026386,59.656975 
	C41.997379,59.457668 41.881756,59.071812 41.796295,58.763329 
	C40.492767,57.620018 39.274700,56.785194 37.803642,55.670162 
	C36.038376,55.274708 34.526104,55.159458 33.010529,54.782707 
	C33.005043,54.346874 33.002869,54.172543 32.944878,53.655403 
	C31.926315,52.874966 30.963564,52.437328 30.000015,51.750534 
	C29.999218,51.501373 29.998121,51.003052 30.007320,50.599724 
	C30.342480,47.794182 30.668440,45.391960 31.000011,42.638710 
	C32.336044,40.855400 33.666470,39.423126 35.186699,38.257339 
	C36.250847,39.682293 37.125191,40.840767 37.873291,42.293495 
	C37.498436,43.391361 37.249828,44.194965 37.003765,45.347145 
	C37.670010,46.797295 38.333710,47.898876 39.041687,49.319725 
	C39.723675,50.093117 40.361378,50.547237 40.999084,51.001358 
	C43.639977,52.769180 46.280865,54.537006 48.960445,56.658195 
z"/>
<path fill="#FAF7F6" opacity="1.000000" stroke="none" 
	d="
M37.928867,24.000277 
	C38.948242,24.426920 39.967617,24.853565 40.797359,25.803654 
	C40.737709,27.219124 40.867691,28.111147 40.998821,29.001549 
	C40.999969,28.999926 41.002441,29.000628 40.589718,29.000458 
	C36.739819,28.510506 35.301167,29.991343 34.569786,33.436886 
	C33.701881,37.525581 32.509151,37.866196 29.984344,35.665344 
	C29.964012,34.899940 29.956699,34.462372 29.988358,33.680813 
	C29.701138,32.540024 29.374943,31.743231 28.946690,30.698933 
	C28.581821,29.987045 28.319016,29.522663 28.071308,28.706661 
	C28.022417,27.891769 27.958429,27.428493 27.892746,26.631199 
	C27.957434,25.856663 28.023813,25.416147 28.344799,24.933151 
	C29.463629,25.198126 30.327856,25.505583 31.480927,25.860264 
	C31.882505,25.748230 31.995237,25.588970 32.141975,25.836834 
	C33.752903,26.430988 35.329826,26.618017 37.224205,26.865793 
	C37.927967,26.735899 38.314270,26.545259 38.700569,26.354618 
	C38.403900,25.911127 38.107235,25.467638 37.782722,24.761547 
	C37.812870,24.332722 37.870869,24.166500 37.928867,24.000277 
z"/>
<path fill="#F7F5F6" opacity="1.000000" stroke="none" 
	d="
M37.001221,44.998573 
	C37.249828,44.194965 37.498436,43.391361 38.239590,42.292725 
	C39.634331,41.296280 40.771160,40.753498 41.379639,39.853497 
	C42.149117,38.715374 42.488422,37.286411 43.272743,36.097618 
	C44.032383,36.476227 44.532547,36.740112 45.025711,37.399483 
	C45.017151,38.847710 45.015602,39.900448 45.014053,40.953186 
	C44.037308,42.732594 43.060562,44.511997 41.699211,46.609756 
	C39.876808,46.284927 38.439014,45.641750 37.001221,44.998573 
z"/>
<path fill="#E9E6E7" opacity="1.000000" stroke="none" 
	d="
M45.032715,37.003998 
	C44.532547,36.740112 44.032383,36.476227 43.269615,35.694603 
	C42.337238,33.118965 41.667458,31.061066 40.997673,29.003170 
	C40.867691,28.111147 40.737709,27.219124 40.800430,26.138680 
	C46.486729,27.503870 45.303745,32.310211 45.744904,36.613178 
	C45.500206,37.020279 45.032715,37.003998 45.032715,37.003998 
z"/>
<path fill="#FAF8F9" opacity="1.000000" stroke="none" 
	d="
M37.003765,45.347145 
	C38.439014,45.641750 39.876808,46.284927 41.657719,46.962723 
	C41.848679,47.911575 41.696529,48.825809 41.102478,49.627647 
	C40.106186,49.343655 39.551796,49.172058 38.997406,49.000458 
	C38.333710,47.898876 37.670010,46.797295 37.003765,45.347145 
z"/>
<path fill="#9F7049" opacity="1.000000" stroke="none" 
	d="
M37.743736,23.698666 
	C37.870869,24.166500 37.812870,24.332722 37.430092,24.740982 
	C36.397270,24.992208 35.689228,25.001392 34.962593,25.021286 
	C34.944004,25.031992 34.900475,25.037010 34.902367,24.846256 
	C34.904263,24.655502 34.906147,24.273979 34.867474,23.976433 
	C34.549458,23.404778 34.270119,23.130671 34.034657,22.384262 
	C34.190380,21.286135 34.302223,20.660309 34.414066,20.034485 
	C35.462246,21.155340 36.510429,22.276196 37.743736,23.698666 
z"/>
<path fill="#93613F" opacity="1.000000" stroke="none" 
	d="
M34.392456,20.029606 
	C34.302223,20.660309 34.190380,21.286135 34.083672,22.676571 
	C34.361256,23.718781 34.633701,23.996380 34.906147,24.273979 
	C34.906147,24.273979 34.904263,24.655502 34.433052,24.846035 
	C33.343884,25.167616 32.725925,25.298664 32.107971,25.429712 
	C31.995237,25.588970 31.882505,25.748230 31.686913,25.558466 
	C31.402248,24.363970 31.200441,23.518494 31.287746,22.458982 
	C32.496132,21.496002 33.415405,20.747057 34.334679,19.998112 
	C34.334679,19.998112 34.370850,20.024729 34.392456,20.029606 
z"/>
<path fill="#AC7549" opacity="1.000000" stroke="none" 
	d="
M34.283146,17.216219 
	C34.178402,17.630575 34.073654,18.044931 33.328903,18.670692 
	C32.406757,18.840115 32.124607,18.798130 31.825958,18.403339 
	C31.788208,17.345938 31.766958,16.641340 31.706806,15.645016 
	C31.021832,14.933644 30.375759,14.513998 30.163260,14.040545 
	C30.887644,13.975857 31.178453,13.964975 31.727240,13.904852 
	C32.332710,13.887933 32.680206,13.920257 33.079063,13.980536 
	C33.130424,14.008490 33.239883,13.967284 33.173359,14.351672 
	C33.498940,15.562779 33.891045,16.389500 34.283146,17.216219 
z"/>
<path fill="#4C1B06" opacity="1.000000" stroke="none" 
	d="
M35.484844,10.127118 
	C35.484844,10.127118 35.409161,10.499595 35.258106,11.068708 
	C34.972404,12.453471 34.837757,13.269120 34.458763,14.071321 
	C33.890057,14.022451 33.565212,13.992255 33.239883,13.967284 
	C33.239883,13.967284 33.130424,14.008490 33.100151,13.737141 
	C33.069874,13.465792 32.960464,12.988899 32.985748,12.670591 
	C33.090591,11.934378 33.170155,11.516472 33.446526,10.904696 
	C34.082092,10.149446 34.520847,9.588065 34.959606,9.026686 
	C34.959606,9.026686 35.006584,8.922817 35.084888,9.247551 
	C35.270409,9.757230 35.377625,9.942174 35.484844,10.127118 
z"/>
<path fill="#78422A" opacity="1.000000" stroke="none" 
	d="
M34.963142,8.674173 
	C34.520847,9.588065 34.082092,10.149446 33.380322,10.460550 
	C33.086391,9.307414 33.055473,8.404554 33.024551,7.501694 
	C33.406982,7.329315 33.789417,7.156938 34.385002,6.979450 
	C34.720997,7.423448 34.843834,7.872554 34.963142,8.674173 
z"/>
<path fill="#3F1B11" opacity="1.000000" stroke="none" 
	d="
M31.842459,18.756145 
	C32.124607,18.798130 32.406757,18.840115 33.099606,18.751701 
	C33.790070,18.883217 34.069832,19.145134 34.342136,19.702581 
	C33.415405,20.747057 32.496132,21.496002 31.106564,22.402195 
	C30.636269,22.559443 30.360266,22.298613 30.356953,21.893589 
	C30.477039,21.248386 30.600437,21.008205 31.011587,20.673435 
	C31.525602,20.040987 31.751867,19.503128 31.905104,18.938362 
	C31.832077,18.911453 31.842459,18.756145 31.842459,18.756145 
z"/>
<path fill="#CDCBCC" opacity="1.000000" stroke="none" 
	d="
M45.025711,37.399483 
	C45.032715,37.003998 45.500206,37.020279 45.733482,37.031395 
	C45.839943,38.208893 45.713135,39.375267 45.300190,40.747414 
	C45.015602,39.900448 45.017151,38.847710 45.025711,37.399483 
z"/>
<path fill="#F7F5F6" opacity="1.000000" stroke="none" 
	d="
M39.041687,49.319729 
	C39.551796,49.172058 40.106186,49.343655 40.830345,49.758469 
	C41.000107,50.001678 40.999790,50.501503 40.999435,50.751431 
	C40.361378,50.547237 39.723675,50.093117 39.041687,49.319729 
z"/>
<path fill="#2F0300" opacity="1.000000" stroke="none" 
	d="
M33.173359,14.351672 
	C33.565212,13.992255 33.890057,14.022451 34.569096,14.092401 
	C34.923779,14.126929 35.087112,13.972673 35.000729,14.372419 
	C34.984703,15.035582 35.055061,15.298996 35.125412,15.562410 
	C34.945934,15.995625 34.766457,16.428841 34.435059,17.039137 
	C33.891045,16.389500 33.498940,15.562779 33.173359,14.351672 
z"/>
<path fill="#C5A88B" opacity="1.000000" stroke="none" 
	d="
M34.813446,14.105849 
	C34.837757,13.269120 34.972404,12.453471 35.275486,11.257957 
	C35.611141,11.693518 35.778366,12.508945 35.710495,13.652239 
	C35.475407,13.980104 35.087112,13.972673 35.087112,13.972673 
	C35.087112,13.972673 34.923779,14.126929 34.813446,14.105849 
z"/>
<path fill="#A98C73" opacity="1.000000" stroke="none" 
	d="
M34.733032,3.931981 
	C34.633232,4.203248 34.526775,4.335021 34.143970,4.216086 
	C33.555943,4.054814 33.350719,4.012478 33.145500,3.970143 
	C33.271202,3.640260 33.396904,3.310377 33.796886,2.987406 
	C34.325058,3.216450 34.578945,3.438582 34.733032,3.931981 
z"/>
<path fill="#D3B494" opacity="1.000000" stroke="none" 
	d="
M35.000729,14.372419 
	C35.087112,13.972673 35.475407,13.980104 35.668999,13.975291 
	C35.756821,14.574279 35.651047,15.178080 35.335342,15.672146 
	C35.055061,15.298996 34.984703,15.035582 35.000729,14.372419 
z"/>
<path fill="#C5A88B" opacity="1.000000" stroke="none" 
	d="
M35.653076,9.983814 
	C35.377625,9.942174 35.270409,9.757230 35.141682,9.252407 
	C35.353882,9.235188 35.587597,9.537850 35.653076,9.983814 
z"/>
<path fill="#F7F5F6" opacity="1.000000" stroke="none" 
	d="
M44.453373,48.529606 
	C44.423077,48.477585 44.483669,48.581627 44.453373,48.529606 
z"/>
<path fill="#935B34" opacity="1.000000" stroke="none" 
	d="
M6.581673,32.900990 
	C7.240829,31.736326 7.899985,30.571663 8.958713,29.080238 
	C9.648781,28.584261 9.874206,28.351904 10.325388,28.210224 
	C10.788874,29.208803 10.961530,30.053568 11.064987,31.128714 
	C10.995789,31.359095 10.984807,31.840067 10.708964,31.938652 
	C9.674156,32.631008 8.915191,33.224777 7.783304,33.874031 
	C7.219818,34.093407 7.029252,34.257301 6.838686,34.421196 
	C6.838686,34.421196 6.770621,34.245941 6.600634,33.901188 
	C6.480989,33.337955 6.531330,33.119473 6.581673,32.900990 
z"/>
<path fill="#B8855B" opacity="1.000000" stroke="none" 
	d="
M14.358570,12.632790 
	C15.195042,10.905721 16.031511,9.178651 17.393852,7.730882 
	C18.278936,8.369024 18.638147,8.727865 18.886738,9.341882 
	C18.552155,10.107457 18.328192,10.617859 18.074709,11.380476 
	C17.873503,12.102552 17.701818,12.572411 17.144699,13.013896 
	C16.501614,12.984943 16.243963,12.984363 15.574171,12.920176 
	C14.894210,12.781976 14.626390,12.707382 14.358570,12.632790 
z"/>
<path fill="#824C26" opacity="1.000000" stroke="none" 
	d="
M11.310968,19.754139 
	C11.500258,19.473728 11.595340,19.164364 11.769860,18.397697 
	C12.046448,17.643353 12.054175,17.315115 11.966689,16.984632 
	C12.127503,16.613611 12.288318,16.242590 12.717897,15.966698 
	C13.265658,16.412472 13.544654,16.763117 14.181125,17.148678 
	C15.009727,17.130342 15.480854,17.077091 15.969401,17.354717 
	C16.001556,18.128960 16.016289,18.572327 15.968481,19.253233 
	C15.905940,19.490772 15.813801,19.973324 15.602388,20.024216 
	C15.390976,20.075109 15.040326,20.332375 14.796423,20.354345 
	C14.552519,20.376316 14.063033,20.393366 13.817308,20.213284 
	C13.178930,19.960052 12.786277,19.886904 12.321758,19.753765 
	C12.249893,19.693775 12.072643,19.633472 11.866545,19.564667 
	C11.660447,19.495859 11.310968,19.754139 11.310968,19.754139 
M13.591931,18.504572 
	C13.591931,18.504572 13.377880,18.370678 13.377880,18.370678 
	C13.377880,18.370678 13.402872,18.648113 13.591931,18.504572 
z"/>
<path fill="#A3785D" opacity="1.000000" stroke="none" 
	d="
M18.997360,9.086707 
	C18.638147,8.727865 18.278936,8.369024 17.760735,7.656453 
	C17.710690,7.001868 17.840330,6.710209 18.306309,6.004687 
	C18.669432,5.197297 18.716909,4.812969 18.764387,4.428641 
	C18.926935,4.184483 19.154129,4.047720 19.949774,4.124315 
	C20.664280,4.293754 20.874985,4.357230 21.065849,4.692216 
	C21.039164,5.332702 21.032318,5.701676 21.154125,6.338597 
	C21.550644,7.339343 21.818512,8.072144 21.875027,8.914999 
	C21.663670,9.025054 21.203344,9.129399 21.025108,8.853600 
	C20.537823,8.263380 20.228773,7.948959 19.734009,7.655762 
	C19.364653,8.146894 19.181005,8.616800 18.997360,9.086707 
z"/>
<path fill="#C09976" opacity="1.000000" stroke="none" 
	d="
M9.975967,22.997902 
	C9.975967,22.997902 10.132139,22.667465 10.431189,22.411461 
	C10.912707,22.111322 11.095178,22.067186 11.612970,22.003391 
	C12.623285,21.971815 13.298278,21.959898 13.952005,22.272121 
	C13.277780,23.404236 12.624821,24.212208 11.776403,25.008940 
	C11.580947,24.997698 11.190917,24.963135 11.146448,24.955353 
	C11.101980,24.947569 11.012243,24.937607 10.915524,24.738897 
	C10.642514,24.295197 10.416578,24.111139 10.091067,23.967716 
	C10.041138,23.947420 9.941259,23.987965 9.979752,23.741493 
	C10.018245,23.495024 9.975967,22.997902 9.975967,22.997902 
z"/>
<path fill="#D6BFAA" opacity="1.000000" stroke="none" 
	d="
M10.034558,28.056408 
	C9.874206,28.351904 9.648781,28.584261 9.113859,28.773693 
	C8.895843,27.462229 8.922251,26.130548 9.211653,24.394081 
	C9.474646,23.989292 9.941259,23.987965 9.941259,23.987965 
	C9.941259,23.987965 10.041138,23.947420 10.143845,24.195694 
	C10.421388,24.733126 10.676618,24.897673 11.012243,24.937607 
	C11.012243,24.937607 11.101980,24.947569 11.051905,25.275887 
	C10.679404,26.421606 10.356981,27.239008 10.034558,28.056408 
z"/>
<path fill="#AC7549" opacity="1.000000" stroke="none" 
	d="
M13.823649,17.113762 
	C13.544654,16.763117 13.265658,16.412472 12.909620,15.731695 
	C13.200748,14.591434 13.568917,13.781305 14.147828,12.801983 
	C14.626390,12.707382 14.894210,12.781976 15.590671,13.197964 
	C16.040688,13.723515 16.062065,13.907674 16.217503,14.187099 
	C16.351561,14.282364 16.326565,14.610333 15.979452,14.450171 
	C15.029443,15.231260 14.426546,16.172510 13.823649,17.113762 
z"/>
<path fill="#FFFBF6" opacity="1.000000" stroke="none" 
	d="
M6.741653,34.623329 
	C7.029252,34.257301 7.219818,34.093407 7.733731,34.140099 
	C8.053154,34.530899 8.049229,34.711121 8.031609,35.166382 
	C8.012401,35.624924 8.006888,35.808426 8.001376,35.991928 
	C7.423910,36.118752 6.846445,36.245579 6.135703,36.185444 
	C6.216492,35.607479 6.430556,35.216473 6.741653,34.623329 
z"/>
<path fill="#724724" opacity="1.000000" stroke="none" 
	d="
M21.085688,4.420705 
	C20.874985,4.357230 20.664280,4.293754 20.152065,4.095969 
	C20.243526,3.473805 20.636497,2.985952 21.399998,2.563311 
	C21.887785,2.801204 22.005045,2.973885 21.987848,3.385996 
	C21.597492,3.890519 21.341589,4.155612 21.085688,4.420705 
z"/>
<path fill="#F0E1D6" opacity="1.000000" stroke="none" 
	d="
M11.277647,22.023050 
	C11.095178,22.067186 10.912707,22.111322 10.459455,22.230921 
	C10.350897,21.595236 10.513121,20.884089 10.993156,19.963539 
	C11.310968,19.754139 11.660447,19.495859 11.603142,19.846697 
	C11.535260,20.451509 11.524684,20.705484 11.431467,21.220127 
	C11.325099,21.661547 11.301373,21.842299 11.277647,22.023050 
z"/>
<path fill="#D1B499" opacity="1.000000" stroke="none" 
	d="
M11.734463,17.149086 
	C12.054175,17.315115 12.046448,17.643353 11.776943,18.152704 
	C11.532160,18.114542 11.429543,17.897629 11.386434,17.669474 
	C11.366118,17.561962 11.460065,17.432859 11.734463,17.149086 
z"/>
<path fill="#B98865" opacity="1.000000" stroke="none" 
	d="
M18.561275,4.639568 
	C18.716909,4.812969 18.669432,5.197297 18.413059,5.789080 
	C18.255495,5.614521 18.306828,5.232508 18.561275,4.639568 
z"/>
<path fill="#724724" opacity="1.000000" stroke="none" 
	d="
M21.669243,1.796375 
	C22.107613,1.963498 22.451370,2.189636 22.677673,2.744166 
	C22.560219,3.072557 22.122303,3.146565 22.122303,3.146565 
	C22.005045,2.973885 21.887785,2.801204 21.633005,2.346209 
	C21.495483,2.063894 21.574631,1.855392 21.669243,1.796375 
z"/>
<path fill="#F0E1D6" opacity="1.000000" stroke="none" 
	d="
M9.979752,23.741493 
	C9.941259,23.987965 9.474646,23.989292 9.241478,23.993969 
	C9.086156,23.668257 9.261489,23.402109 9.755139,23.099051 
	C9.975967,22.997902 10.018245,23.495024 9.979752,23.741493 
z"/>
<path fill="#D4B296" opacity="1.000000" stroke="none" 
	d="
M6.361258,33.010807 
	C6.531330,33.119473 6.480989,33.337955 6.508243,33.883850 
	C6.376939,33.997879 6.138712,33.803970 5.976466,33.559612 
	C5.925800,33.483303 6.080275,33.270790 6.361258,33.010807 
z"/>
<path fill="#F8F7F7" opacity="1.000000" stroke="none" 
	d="
M7.994402,36.331520 
	C8.006888,35.808426 8.012401,35.624924 8.374154,35.211380 
	C9.490085,34.625145 10.249774,34.268948 11.269611,33.869774 
	C12.072212,33.416710 12.614663,33.006630 13.538245,32.532452 
	C14.872352,31.759809 15.825328,31.051268 16.862028,30.305912 
	C16.945751,30.269098 17.008329,30.094683 17.322763,30.148094 
	C18.106195,30.636612 18.575195,31.071716 19.028154,31.681498 
	C19.014008,32.089993 19.012091,32.323780 18.774927,32.815475 
	C18.389135,34.069775 18.234779,35.066139 18.010588,36.513275 
	C19.014444,35.758156 19.519119,35.378529 20.226578,34.995796 
	C20.429361,34.992683 20.833483,34.957920 20.855766,35.274666 
	C20.903326,36.221424 20.928604,36.851429 20.684925,37.748211 
	C20.317831,38.989811 20.219692,39.964638 20.055946,41.285446 
	C19.644785,43.743557 19.299232,45.855690 18.608986,48.009895 
	C17.782356,48.986702 17.300421,49.921440 16.569744,51.031296 
	C16.190657,51.787563 16.060308,52.368710 15.954550,52.978584 
	C15.979139,53.007313 15.955078,52.935902 15.627867,53.180164 
	C15.201636,55.617325 15.102617,57.810219 14.802616,60.074707 
	C14.601634,60.146301 14.195658,60.277676 13.851694,60.182144 
	C13.034861,60.081715 12.561993,60.076809 11.831543,59.876015 
	C11.036016,55.685627 11.535783,51.248684 7.002245,48.957809 
	C6.545116,45.810390 6.087987,42.662975 5.591476,39.244400 
	C6.146046,38.648781 7.066737,37.659950 7.994402,36.331520 
z"/>
<path fill="#E1E0E0" opacity="1.000000" stroke="none" 
	d="
M7.000394,49.392365 
	C11.535783,51.248684 11.036016,55.685627 11.816422,60.188095 
	C12.071959,61.113544 12.085037,61.531010 11.911253,62.198860 
	C10.793503,63.222481 9.862616,63.995716 8.717855,64.869247 
	C8.503983,64.969543 8.054101,65.113800 8.054101,65.113800 
	C4.544993,60.236183 6.529245,54.979248 7.000394,49.392365 
z"/>
<path fill="#CB8968" opacity="1.000000" stroke="none" 
	d="
M8.028286,65.488243 
	C8.054101,65.113800 8.503983,64.969543 8.922951,65.012268 
	C9.834662,65.719383 10.327408,66.383781 10.970526,67.337418 
	C11.446523,68.415062 11.772146,69.203461 12.097771,69.991852 
	C11.311251,70.303497 10.524733,70.615143 9.405277,70.884094 
	C8.715718,69.181831 8.359095,67.522255 8.028286,65.488243 
z"/>
<path fill="#F7CCA2" opacity="1.000000" stroke="none" 
	d="
M38.056637,55.950367 
	C39.274700,56.785194 40.492767,57.620018 41.580109,58.910591 
	C41.274490,59.851288 41.099598,60.336235 40.566040,60.860661 
	C39.130424,61.258156 38.053474,61.616177 36.957973,61.969894 
	C36.939419,61.965584 36.904449,61.945690 36.598648,61.801476 
	C35.165367,62.129601 34.037891,62.601936 32.910416,63.074272 
	C30.509325,63.697369 28.108234,64.320473 25.145428,64.682251 
	C24.050629,64.272713 23.517548,64.124496 22.824909,63.700356 
	C22.327753,63.162132 21.990154,62.899834 21.638075,62.519691 
	C21.623594,62.401840 21.596996,62.165867 21.815660,61.893440 
	C22.317331,60.769726 22.600338,59.918442 22.947182,59.027969 
	C23.011019,58.988785 23.139566,58.911854 23.416330,58.917755 
	C24.161177,58.661327 24.629261,58.399006 25.412834,58.108276 
	C26.144650,58.012157 26.560980,57.944454 27.253895,57.983009 
	C29.340200,57.390530 31.149921,56.691792 33.384544,55.996216 
	C35.225174,55.983036 36.640907,55.966702 38.056637,55.950367 
z"/>
<path fill="#E9E9E9" opacity="1.000000" stroke="none" 
	d="
M43.183491,60.981964 
	C44.439007,63.060757 46.821819,65.233704 46.658089,67.193954 
	C46.463566,69.522926 47.309151,73.656830 42.236027,73.684677 
	C40.444611,72.709694 39.204159,72.032310 38.055592,71.405106 
	C39.185837,71.031448 40.415802,70.624825 41.645771,70.218193 
	C41.624420,69.873253 41.603069,69.528305 41.581715,69.183365 
	C40.051914,68.789635 38.522110,68.395897 36.992306,68.002167 
	C37.984196,66.638794 38.976086,65.275429 40.215549,63.422661 
	C40.707642,62.636700 40.952164,62.340134 41.495235,62.021172 
	C42.257019,61.659832 42.720253,61.320900 43.183491,60.981964 
z"/>
<path fill="#F6F4F4" opacity="1.000000" stroke="none" 
	d="
M36.645218,68.153885 
	C38.522110,68.395897 40.051914,68.789635 41.581715,69.183365 
	C41.603069,69.528305 41.624420,69.873253 41.645771,70.218193 
	C40.415802,70.624825 39.185837,71.031448 38.055592,71.405106 
	C39.204159,72.032310 40.444611,72.709694 41.846329,73.688751 
	C42.000805,74.175110 41.994003,74.359802 41.592773,74.773880 
	C40.434151,74.892700 39.669945,74.782127 38.780396,74.706528 
	C38.655052,74.741493 38.570232,74.987549 38.308620,74.745033 
	C37.362991,74.313286 36.678974,74.124062 36.018333,73.972214 
	C36.041714,74.009590 36.118782,73.966759 35.944084,73.657135 
	C34.605831,73.404655 33.442268,73.461807 32.278709,73.518951 
	C30.779778,72.158066 29.280842,70.797173 27.781908,69.436287 
	C27.984116,69.059395 28.186321,68.682503 28.388527,68.305611 
	C31.025061,68.305611 33.661594,68.305611 36.645218,68.153885 
z"/>
<path fill="#F9CDAC" opacity="1.000000" stroke="none" 
	d="
M12.352072,69.884979 
	C11.772146,69.203461 11.446523,68.415062 11.315657,67.281387 
	C12.674371,65.680862 13.838327,64.425606 15.363470,63.243828 
	C16.189428,63.476990 16.654198,63.636677 17.200216,63.892017 
	C17.435844,64.083916 17.596323,64.168617 18.011517,64.435692 
	C18.864708,64.785965 19.469282,64.942337 20.073856,65.098709 
	C18.266640,66.303276 16.459421,67.507843 14.392134,68.943665 
	C13.623500,69.375984 13.114936,69.577049 12.352072,69.884979 
z"/>
<path fill="#ECB685" opacity="1.000000" stroke="none" 
	d="
M32.942230,63.071217 
	C34.037891,62.601936 35.165367,62.129601 36.628349,62.037094 
	C36.963852,62.416920 37.016243,62.887489 37.016243,62.887489 
	C37.016243,62.887489 36.610874,63.013725 36.001003,63.013985 
	C34.598305,63.015236 33.805481,63.016228 33.012653,63.017223 
	C33.012653,63.017223 32.974041,63.068161 32.942230,63.071217 
z"/>
<path fill="#1E2647" opacity="1.000000" stroke="none" 
	d="
M34.369972,77.311287 
	C33.409855,76.433182 32.449738,75.555084 31.270069,74.432907 
	C31.211994,74.140648 31.373470,74.092445 32.074020,74.088684 
	C32.999779,74.087753 33.386467,74.042397 33.984505,74.372787 
	C34.253895,75.602791 34.311932,76.457039 34.369972,77.311287 
z"/>
<path fill="#E2B18F" opacity="1.000000" stroke="none" 
	d="
M20.383583,65.037430 
	C19.469282,64.942337 18.864708,64.785965 18.152256,64.271461 
	C18.044380,63.913326 18.320345,63.580219 18.517105,63.632149 
	C19.058735,63.536686 19.403606,63.389294 20.018955,63.136684 
	C20.478405,62.989937 20.667377,62.948406 20.996567,63.141823 
	C21.409204,63.610802 21.681625,63.844830 21.954845,64.262230 
	C21.955647,64.445602 21.945324,64.812210 21.945324,64.812210 
	C21.527985,64.866852 21.110645,64.921494 20.383583,65.037430 
z"/>
<path fill="#4F596F" opacity="1.000000" stroke="none" 
	d="
M33.773151,73.997040 
	C33.386467,74.042397 32.999779,74.087753 32.326424,74.075035 
	C32.039749,74.016960 32.124966,73.751663 32.201836,73.635307 
	C33.442268,73.461807 34.605831,73.404655 35.557487,73.731369 
	C34.821442,74.075844 34.297295,74.036446 33.773151,73.997040 
z"/>
<path fill="#C38A77" opacity="1.000000" stroke="none" 
	d="
M37.384842,62.940834 
	C37.016243,62.887489 36.963852,62.416920 36.934151,62.181305 
	C36.904449,61.945690 36.939419,61.965584 37.379013,61.983566 
	C38.944633,62.015556 40.070663,62.029564 41.196690,62.043571 
	C40.952164,62.340134 40.707642,62.636700 40.216724,63.087482 
	C39.231365,63.159195 38.492401,63.076687 37.384842,62.940834 
z"/>
<path fill="#D1A08B" opacity="1.000000" stroke="none" 
	d="
M33.164936,63.303284 
	C33.805481,63.016228 34.598305,63.015236 35.789452,63.031601 
	C35.230919,63.229088 34.274067,63.409214 33.164936,63.303284 
z"/>
<path fill="#E1C0A6" opacity="1.000000" stroke="none" 
	d="
M22.314953,64.881805 
	C21.945324,64.812210 21.955647,64.445602 22.211702,64.226181 
	C22.639994,63.996597 22.812231,63.986439 22.984467,63.976280 
	C23.517548,64.124496 24.050629,64.272713 24.755201,64.639664 
	C24.179323,64.889397 23.431953,64.920403 22.314953,64.881805 
z"/>
<path fill="#ADB7C2" opacity="1.000000" stroke="none" 
	d="
M28.775295,75.323593 
	C29.035856,75.578659 29.156380,76.058182 29.025967,76.557816 
	C28.728441,76.234642 28.681850,75.891335 28.775295,75.323593 
z"/>
<path fill="#E79B7A" opacity="1.000000" stroke="none" 
	d="
M41.495235,62.021172 
	C40.070663,62.029564 38.944633,62.015556 37.397568,61.987877 
	C38.053474,61.616177 39.130424,61.258156 40.817963,60.788322 
	C41.637501,60.403099 41.846447,60.129688 42.055389,59.856277 
	C42.055393,59.856277 42.504944,59.933281 42.728588,59.977455 
	C42.952232,60.021633 43.042625,60.507854 43.113060,60.744911 
	C42.720253,61.320900 42.257019,61.659832 41.495235,62.021172 
z"/>
<path fill="#7D8EA0" opacity="1.000000" stroke="none" 
	d="
M38.905743,74.671555 
	C39.669945,74.782127 40.434151,74.892700 41.582222,75.050903 
	C41.959053,75.834686 41.952019,76.570854 41.887077,77.671249 
	C41.829174,78.035492 41.391884,77.989151 41.142612,77.651108 
	C40.238693,76.899445 39.584042,76.485809 38.925613,75.721992 
	C38.916470,75.138390 38.911106,74.904976 38.905743,74.671555 
z"/>
<path fill="#E9E9E9" opacity="1.000000" stroke="none" 
	d="
M44.954659,77.594757 
	C44.717678,77.205338 44.719616,76.818008 44.749321,76.432838 
	C44.750130,76.422302 45.189560,76.427780 45.190052,76.437607 
	C45.209488,76.823265 45.201664,77.210297 44.954659,77.594757 
z"/>
<path fill="#8196AF" opacity="1.000000" stroke="none" 
	d="
M38.780396,74.706528 
	C38.911106,74.904976 38.916470,75.138390 38.719704,75.869598 
	C38.347595,76.836472 38.177608,77.305542 38.007622,77.774612 
	C38.007622,77.774612 37.989792,77.933762 37.992584,78.014374 
	C36.929733,78.250832 35.864090,78.406685 34.486969,78.635468 
	C34.195423,78.393944 34.238705,78.082733 34.337650,77.543030 
	C34.311932,76.457039 34.253895,75.602791 33.984505,74.372795 
	C34.297295,74.036446 34.821442,74.075844 35.732185,74.041000 
	C36.118782,73.966759 36.041714,74.009590 36.194962,74.305908 
	C37.088882,74.730659 37.829559,74.859100 38.570232,74.987549 
	C38.570232,74.987549 38.655052,74.741493 38.780396,74.706528 
z"/>
<path fill="#FBD0B2" opacity="1.000000" stroke="none" 
	d="
M31.996462,5.996115 
	C32.099846,6.354346 32.203228,6.712578 32.231445,7.657096 
	C32.087814,8.480596 32.019356,8.717808 31.617294,8.964576 
	C30.837067,8.983673 30.390442,8.993214 29.664909,8.857194 
	C28.902925,7.829333 28.419853,6.947033 28.326727,6.005044 
	C28.974709,5.894528 29.232744,5.843700 29.805779,5.797471 
	C30.746006,5.866752 31.371233,5.931434 31.996462,5.996115 
z"/>
<path fill="#7B4E31" opacity="1.000000" stroke="none" 
	d="
M31.984962,5.676477 
	C31.371233,5.931434 30.746006,5.866752 29.637962,5.555409 
	C28.813341,5.127019 28.471535,4.945291 28.129730,4.763563 
	C27.863646,4.259078 27.597561,3.754593 27.478233,3.086570 
	C28.455675,2.950949 29.286360,2.978867 30.526260,3.020731 
	C31.281473,3.808732 31.627468,4.582786 31.984962,5.676477 
z"/>
<path fill="#CA8E68" opacity="1.000000" stroke="none" 
	d="
M31.950897,8.955019 
	C32.019356,8.717808 32.087814,8.480596 32.334881,7.917462 
	C32.513485,7.591542 32.768761,7.546301 32.896660,7.523997 
	C33.055473,8.404554 33.086391,9.307414 33.183510,10.654420 
	C33.170155,11.516472 33.090591,11.934378 32.724693,12.758566 
	C32.074150,13.179874 31.709946,13.194898 30.909216,13.125894 
	C29.884914,13.044058 29.297136,13.046248 28.546944,12.915377 
	C28.191685,12.565722 28.066374,12.315313 28.318806,11.897572 
	C29.283756,11.631704 29.938494,11.499354 30.851145,11.512959 
	C31.399837,11.434249 31.690619,11.209586 32.008049,10.646720 
	C32.006767,9.857350 31.978832,9.406185 31.950897,8.955019 
z"/>
<path fill="#9D7C65" opacity="1.000000" stroke="none" 
	d="
M33.191132,4.184024 
	C33.350719,4.012478 33.555943,4.054814 34.061165,4.198260 
	C33.986366,4.332215 33.611568,4.365061 33.191132,4.184024 
z"/>
<path fill="#FAC69E" opacity="1.000000" stroke="none" 
	d="
M27.779945,4.879978 
	C28.471535,4.945291 28.813341,5.127019 29.322964,5.550809 
	C29.232744,5.843700 28.974709,5.894528 28.010971,5.994847 
	C26.882730,6.052699 26.460192,6.061059 25.807051,6.049478 
	C25.576447,6.029538 25.114544,6.038275 24.926212,6.020970 
	C24.737883,6.003665 24.360439,5.978993 24.371630,5.764065 
	C24.382820,5.549136 24.456629,5.125072 24.709682,5.117665 
	C25.296049,5.058555 25.629364,5.006851 25.962679,4.955147 
	C26.451841,4.968896 26.941002,4.982645 27.779945,4.879978 
z"/>
<path fill="#B98865" opacity="1.000000" stroke="none" 
	d="
M21.987848,3.385996 
	C22.122303,3.146565 22.560219,3.072557 22.779163,3.035583 
	C23.008471,3.186501 23.018831,3.374393 23.011585,4.047762 
	C22.993979,4.533239 22.909239,4.941269 22.666622,5.070533 
	C21.957829,5.490081 21.491652,5.780366 21.025473,6.070651 
	C21.032318,5.701676 21.039164,5.332702 21.065849,4.692216 
	C21.341589,4.155612 21.597492,3.890519 21.987848,3.385996 
z"/>
<path fill="#9C6B43" opacity="1.000000" stroke="none" 
	d="
M22.909239,4.941269 
	C22.909239,4.941269 22.993979,4.533239 23.030815,4.329371 
	C23.906940,4.227366 24.746225,4.329228 25.774096,4.693119 
	C25.629364,5.006851 25.296049,5.058555 24.322655,5.068488 
	C23.424797,4.998234 23.167019,4.969752 22.909239,4.941269 
z"/>
<path fill="#85A3BF" opacity="1.000000" stroke="none" 
	d="
M38.372066,77.844933 
	C38.177608,77.305542 38.347595,76.836472 38.723488,76.219788 
	C39.584042,76.485809 40.238693,76.899445 40.923653,77.631126 
	C40.214817,77.937866 39.475662,77.926559 38.372066,77.844933 
z"/>
<path fill="#FAF8F9" opacity="1.000000" stroke="none" 
	d="
M30.994400,42.989742 
	C30.668440,45.391960 30.342480,47.794182 29.648117,50.604927 
	C27.786522,52.046211 26.293327,53.078972 24.598019,53.917282 
	C23.961195,53.124504 23.526484,52.526180 23.067169,51.525017 
	C23.738213,48.089607 24.433857,45.057030 25.458740,41.980392 
	C27.523453,42.287468 29.258926,42.638607 30.994400,42.989742 
z"/>
<path fill="#FAF8F9" opacity="1.000000" stroke="none" 
	d="
M40.998825,29.001549 
	C41.667458,31.061066 42.337238,33.118965 43.010143,35.579876 
	C42.488422,37.286411 42.149117,38.715374 41.379639,39.853497 
	C40.771160,40.753498 39.634331,41.296280 38.365837,41.998466 
	C37.125191,40.840767 36.250847,39.682293 35.224663,37.910961 
	C37.049366,34.532276 39.025902,31.766451 41.002441,29.000626 
	C41.002441,29.000628 40.999969,28.999926 40.998825,29.001549 
z"/>
<path fill="#F2EEEF" opacity="1.000000" stroke="none" 
	d="
M40.589718,29.000458 
	C39.025902,31.766451 37.049366,34.532276 35.034863,37.644478 
	C33.666470,39.423126 32.336044,40.855400 31.000011,42.638710 
	C29.258926,42.638607 27.523453,42.287468 25.420027,41.650303 
	C25.047640,40.921803 25.043205,40.479328 25.291672,39.867455 
	C25.703987,39.135815 25.863400,38.573578 26.010719,38.006298 
	C25.998629,38.001251 26.017014,38.021393 26.353840,38.032730 
	C27.235777,37.391224 27.780884,36.738377 28.605247,36.084408 
	C29.255457,36.053249 29.626410,36.023216 29.997362,35.993187 
	C32.509151,37.866196 33.701881,37.525581 34.569786,33.436886 
	C35.301167,29.991343 36.739819,28.510506 40.589718,29.000458 
z"/>
<path fill="#F4F2F3" opacity="1.000000" stroke="none" 
	d="
M24.800133,54.111732 
	C26.293327,53.078972 27.786522,52.046211 29.638920,51.008251 
	C29.998121,51.003052 29.999218,51.501373 30.055099,52.093651 
	C31.074219,53.123352 32.037457,53.560780 33.000694,53.998207 
	C33.002869,54.172543 33.005043,54.346874 33.001701,55.019974 
	C32.996178,55.518742 32.959641,55.993053 32.959641,55.993057 
	C31.149921,56.691792 29.340200,57.390530 27.198727,57.657055 
	C26.171806,56.771107 25.476641,56.317371 24.816952,55.573406 
	C24.834995,54.892696 24.817564,54.502213 24.800133,54.111732 
z"/>
<path fill="#FAF8F9" opacity="1.000000" stroke="none" 
	d="
M32.944878,53.655403 
	C32.037457,53.560780 31.074219,53.123352 30.055897,52.342812 
	C30.963564,52.437328 31.926315,52.874966 32.944878,53.655403 
z"/>
<path fill="#E9CFBE" opacity="1.000000" stroke="none" 
	d="
M33.384544,55.996216 
	C32.959641,55.993053 32.996178,55.518742 33.005005,55.281475 
	C34.526104,55.159458 36.038376,55.274708 37.803642,55.670162 
	C36.640907,55.966702 35.225174,55.983036 33.384544,55.996216 
z"/>
<path fill="#F4C08F" opacity="1.000000" stroke="none" 
	d="
M42.026382,59.656971 
	C41.846447,60.129688 41.637501,60.403099 41.176632,60.748848 
	C41.099598,60.336235 41.274490,59.851288 41.665569,59.219074 
	C41.881756,59.071812 41.997379,59.457668 42.026382,59.656971 
z"/>
<path fill="#FBE4CC" opacity="1.000000" stroke="none" 
	d="
M28.056210,29.058277 
	C28.319016,29.522663 28.581821,29.987045 28.931257,31.074478 
	C28.996656,32.444561 28.975428,33.191597 28.693050,34.069069 
	C27.943789,34.792274 27.455679,35.385048 26.721567,36.153656 
	C26.322714,36.893456 26.169863,37.457424 26.017014,38.021393 
	C26.017014,38.021393 25.998629,38.001251 25.765688,38.077152 
	C25.320974,38.414539 25.109203,38.676025 24.667551,38.944435 
	C24.437672,38.951355 23.978916,38.984787 23.746204,38.984863 
	C23.513493,38.984943 23.048262,38.971565 22.835327,38.936211 
	C22.622395,38.900852 22.192865,38.857624 22.159870,38.512863 
	C22.127970,37.472916 22.129065,36.777729 22.330761,35.949944 
	C22.784828,35.596912 22.943333,35.321754 23.046274,34.745621 
	C23.085672,34.499374 23.174595,34.008606 23.355774,33.889229 
	C23.756407,33.571270 23.919178,33.333817 24.369005,32.976555 
	C25.827230,31.616505 26.941719,30.337391 28.056210,29.058277 
z"/>
<path fill="#FBD6B0" opacity="1.000000" stroke="none" 
	d="
M28.071306,28.706661 
	C26.941719,30.337391 25.827230,31.616505 24.337105,32.936638 
	C23.961466,32.977661 23.894741,32.901867 23.806423,32.699696 
	C23.539938,32.244091 23.300545,32.079742 23.000038,32.002090 
	C23.000153,31.999695 22.995129,32.000324 23.122509,31.702499 
	C23.474871,30.589708 23.699856,29.774740 23.959553,28.738970 
	C23.994267,28.518167 24.043894,28.073904 24.248648,27.945585 
	C24.711807,27.612690 24.904255,27.358234 25.277643,27.136684 
	C26.314505,27.134722 27.104473,27.049969 27.894440,26.965218 
	C27.958429,27.428493 28.022417,27.891769 28.071306,28.706661 
z"/>
<path fill="#A78672" opacity="1.000000" stroke="none" 
	d="
M30.817451,22.616230 
	C31.200441,23.518494 31.402248,24.363970 31.398067,25.511242 
	C30.327856,25.505583 29.463629,25.198126 28.372883,24.884731 
	C28.146362,24.878794 28.076677,24.787956 28.065468,24.642288 
	C28.054258,24.496622 27.997841,24.205919 28.285461,24.081120 
	C29.147987,23.382133 29.722897,22.807947 30.314899,22.248447 
	C30.331993,22.263132 30.360266,22.298613 30.360266,22.298613 
	C30.360266,22.298613 30.636269,22.559443 30.817451,22.616230 
z"/>
<path fill="#EFB784" opacity="1.000000" stroke="none" 
	d="
M27.892746,26.631199 
	C27.104473,27.049969 26.314505,27.134722 25.411139,26.834515 
	C26.224052,25.895689 27.150366,25.341824 28.076677,24.787956 
	C28.076677,24.787956 28.146362,24.878794 28.118279,24.927212 
	C28.023813,25.416147 27.957434,25.856663 27.892746,26.631199 
z"/>
<path fill="#834C30" opacity="1.000000" stroke="none" 
	d="
M32.141975,25.836834 
	C32.725925,25.298664 33.343884,25.167616 34.431156,25.036789 
	C34.900475,25.037010 34.944004,25.031992 35.112946,25.242134 
	C35.823509,25.903200 36.365128,26.354124 36.906746,26.805046 
	C35.329826,26.618017 33.752903,26.430988 32.141975,25.836834 
z"/>
<path fill="#B17D53" opacity="1.000000" stroke="none" 
	d="
M37.224205,26.865793 
	C36.365128,26.354124 35.823509,25.903200 35.131538,25.231428 
	C35.689228,25.001392 36.397270,24.992208 37.457939,25.003586 
	C38.107235,25.467638 38.403900,25.911127 38.700569,26.354618 
	C38.314270,26.545259 37.927967,26.735899 37.224205,26.865793 
z"/>
<path fill="#D5C2B5" opacity="1.000000" stroke="none" 
	d="
M26.967569,35.977821 
	C27.455679,35.385048 27.943789,34.792274 28.941639,34.096581 
	C29.451380,33.993664 29.949385,34.024807 29.949385,34.024807 
	C29.956699,34.462372 29.964012,34.899940 29.984344,35.665344 
	C29.626410,36.023216 29.255457,36.053249 28.264280,36.053467 
	C27.418560,36.008373 27.193066,35.993099 26.967569,35.977821 
z"/>
<path fill="#E2D4C8" opacity="1.000000" stroke="none" 
	d="
M29.988358,33.680813 
	C29.949385,34.024807 29.451380,33.993664 29.202789,33.966148 
	C28.975428,33.191597 28.996656,32.444561 29.033318,31.321980 
	C29.374943,31.743231 29.701138,32.540024 29.988358,33.680813 
z"/>
<path fill="#B17D53" opacity="1.000000" stroke="none" 
	d="
M34.867474,23.976433 
	C34.633701,23.996380 34.361256,23.718781 34.039795,23.148872 
	C34.270119,23.130671 34.549458,23.404778 34.867474,23.976433 
z"/>
<path fill="#FED4B7" opacity="1.000000" stroke="none" 
	d="
M29.729685,14.094351 
	C30.375759,14.513998 31.021832,14.933644 31.389553,15.735156 
	C30.687977,17.070633 30.264751,18.024244 29.578089,18.982719 
	C28.961857,18.981047 28.609062,18.974510 28.197998,18.755127 
	C28.139725,18.542282 28.034897,18.113552 28.030184,17.699644 
	C28.025324,16.189655 28.025179,15.093574 28.263491,13.998268 
	C28.501947,13.999045 28.978861,14.001023 29.165054,14.036530 
	C29.351246,14.072037 29.729685,14.094351 29.729685,14.094351 
z"/>
<path fill="#F6BE9B" opacity="1.000000" stroke="none" 
	d="
M29.841530,18.977858 
	C30.264751,18.024244 30.687977,17.070633 31.428455,16.026882 
	C31.766958,16.641340 31.788208,17.345938 31.825958,18.403339 
	C31.842459,18.756145 31.832077,18.911453 31.601128,18.890602 
	C31.168066,18.904905 30.965956,18.940062 30.533424,18.996532 
	C30.303005,19.017847 29.841530,18.977858 29.841530,18.977858 
z"/>
<path fill="#935B34" opacity="1.000000" stroke="none" 
	d="
M31.345741,13.209921 
	C31.709946,13.194898 32.074150,13.179874 32.699409,13.076875 
	C32.960464,12.988899 33.069874,13.465792 33.048786,13.709187 
	C32.680206,13.920257 32.332710,13.887933 31.626457,13.729748 
	C31.267698,13.603888 31.345741,13.209921 31.345741,13.209921 
z"/>
<path fill="#B5886C" opacity="1.000000" stroke="none" 
	d="
M30.909216,13.125894 
	C31.345741,13.209921 31.267698,13.603888 31.368481,13.778992 
	C31.178453,13.964975 30.887644,13.975857 30.163260,14.040545 
	C29.729685,14.094351 29.351246,14.072037 29.110962,13.794668 
	C28.870678,13.517301 28.709360,13.048439 28.709360,13.048439 
	C29.297136,13.046248 29.884914,13.044058 30.909216,13.125894 
z"/>
<path fill="#93613F" opacity="1.000000" stroke="none" 
	d="
M30.356953,21.893589 
	C30.360266,22.298613 30.331993,22.263132 30.076668,22.043152 
	C29.669003,21.679871 29.516665,21.536568 29.495338,21.158375 
	C29.965734,20.519670 30.305119,20.115862 30.685116,19.974485 
	C30.725100,20.413954 30.724468,20.590990 30.723835,20.768026 
	C30.600437,21.008205 30.477039,21.248386 30.356953,21.893589 
z"/>
<path fill="#602E13" opacity="1.000000" stroke="none" 
	d="
M31.011587,20.673435 
	C30.724468,20.590990 30.725100,20.413954 30.733564,19.793232 
	C30.741400,19.349546 30.763844,18.975220 30.763844,18.975220 
	C30.965956,18.940062 31.168066,18.904905 31.674154,18.917511 
	C31.751867,19.503128 31.525602,20.040987 31.011587,20.673435 
z"/>
<path fill="#D49D6D" opacity="1.000000" stroke="none" 
	d="
M10.325388,28.210224 
	C10.356981,27.239008 10.679404,26.421606 11.096373,25.283670 
	C11.190917,24.963135 11.580947,24.997698 11.855808,25.234455 
	C12.277121,25.765896 12.491677,25.997494 12.850630,26.482859 
	C12.985847,27.232370 13.044770,27.665024 13.084549,28.439587 
	C12.943407,29.452507 12.821410,30.123520 12.437608,30.814320 
	C11.828596,30.855513 11.481390,30.876923 11.134185,30.898333 
	C10.961530,30.053568 10.788874,29.208803 10.325388,28.210224 
z"/>
<path fill="#B38150" opacity="1.000000" stroke="none" 
	d="
M11.064987,31.128714 
	C11.481390,30.876923 11.828596,30.855513 12.574808,31.259954 
	C13.034916,31.989388 13.096016,32.292969 13.157116,32.596550 
	C12.614663,33.006630 12.072212,33.416710 11.279215,33.525177 
	C11.014049,32.762394 10.999428,32.301231 10.984807,31.840067 
	C10.984807,31.840067 10.995789,31.359095 11.064987,31.128714 
z"/>
<path fill="#D4B296" opacity="1.000000" stroke="none" 
	d="
M10.708964,31.938652 
	C10.999428,32.301231 11.014049,32.762394 11.019066,33.568153 
	C10.249774,34.268948 9.490085,34.625145 8.387850,34.936344 
	C8.049229,34.711121 8.053154,34.530899 8.106651,34.084614 
	C8.915191,33.224777 9.674156,32.631008 10.708964,31.938652 
z"/>
<path fill="#D8B588" opacity="1.000000" stroke="none" 
	d="
M17.530132,13.042269 
	C17.701818,12.572411 17.873503,12.102552 18.298019,11.332756 
	C18.550850,11.032820 19.007257,11.000488 19.002953,11.328028 
	C19.008011,12.091616 19.017370,12.527663 19.020086,13.296246 
	C19.005871,14.072178 18.998301,14.515574 18.575766,14.927313 
	C17.611429,14.922482 17.062059,14.949309 16.491600,14.904747 
	C16.470510,14.833359 16.326565,14.610333 16.326565,14.610333 
	C16.326565,14.610333 16.351561,14.282364 16.546543,14.173401 
	C17.004396,13.723715 17.267265,13.382992 17.530132,13.042269 
z"/>
<path fill="#BD9472" opacity="1.000000" stroke="none" 
	d="
M19.007257,11.000488 
	C19.007257,11.000488 18.550850,11.032820 18.327541,11.080540 
	C18.328192,10.617859 18.552155,10.107457 18.886738,9.341882 
	C19.181005,8.616800 19.364653,8.146894 19.734291,8.084765 
	C19.962776,9.325521 20.005270,10.158496 19.787401,10.993572 
	C19.353777,10.997277 19.180517,10.998883 19.007257,11.000488 
z"/>
<path fill="#9C6B43" opacity="1.000000" stroke="none" 
	d="
M17.144699,13.013897 
	C17.267265,13.382992 17.004396,13.723715 16.412485,14.078135 
	C16.062065,13.907674 16.040688,13.723515 16.002813,13.261568 
	C16.243963,12.984363 16.501614,12.984943 17.144699,13.013897 
z"/>
<path fill="#C39163" opacity="1.000000" stroke="none" 
	d="
M12.774339,26.166002 
	C12.491677,25.997494 12.277121,25.765896 12.051266,25.245697 
	C12.624821,24.212208 13.277780,23.404236 13.963707,22.011337 
	C14.018793,21.082064 14.040914,20.737715 14.063034,20.393366 
	C14.063033,20.393366 14.552519,20.376316 14.923191,20.504963 
	C15.499272,20.814440 15.735085,20.936724 16.021164,21.303894 
	C16.371790,22.087761 16.702547,22.568193 17.044968,23.351168 
	C17.375414,24.379879 17.694195,25.106047 17.998743,25.908525 
	C17.984510,25.984838 17.953938,26.137058 17.698938,26.254923 
	C17.248436,26.893415 17.052931,27.414042 16.554474,27.946125 
	C15.847807,27.960171 15.444095,27.962761 15.025143,27.968380 
	C15.009903,27.971407 14.999935,28.000839 14.978106,27.669586 
	C14.538122,26.882267 14.119969,26.426201 13.466959,26.004953 
	C13.232100,26.039770 12.774339,26.166002 12.774339,26.166002 
z"/>
<path fill="#D49D6D" opacity="1.000000" stroke="none" 
	d="
M15.979452,14.450171 
	C16.326565,14.610333 16.470510,14.833359 16.641407,15.154158 
	C16.882109,15.655621 16.951914,15.836285 16.999187,16.256527 
	C16.976654,16.496107 16.905128,16.972036 16.666634,16.981167 
	C16.428139,16.990297 15.951981,17.023842 15.951981,17.023842 
	C15.480854,17.077091 15.009727,17.130342 14.181125,17.148678 
	C14.426546,16.172510 15.029443,15.231260 15.979452,14.450171 
z"/>
<path fill="#DAAD86" opacity="1.000000" stroke="none" 
	d="
M15.813801,19.973324 
	C15.813801,19.973324 15.905940,19.490772 16.299051,19.242994 
	C17.134853,18.992973 17.577541,18.990728 18.344734,19.128902 
	C19.128857,19.322861 19.588478,19.376398 20.037762,19.409809 
	C20.027422,19.389681 20.023510,19.346003 19.668007,19.477905 
	C19.058569,20.041853 18.804634,20.473902 18.439316,20.908600 
	C18.327930,20.911249 18.105858,20.929632 17.837467,20.947407 
	C17.389826,20.970293 17.210579,20.975401 16.881733,20.754431 
	C16.426020,20.343342 16.119909,20.158333 15.813801,19.973324 
z"/>
<path fill="#BC8358" opacity="1.000000" stroke="none" 
	d="
M13.817309,20.213284 
	C14.040914,20.737715 14.018793,21.082064 13.984972,21.687199 
	C13.298278,21.959898 12.623285,21.971815 11.612970,22.003391 
	C11.301373,21.842299 11.325099,21.661547 11.594092,21.046947 
	C12.011340,20.337795 12.196095,20.071346 12.393622,19.813753 
	C12.786277,19.886904 13.178930,19.960052 13.817309,20.213284 
z"/>
<path fill="#BB8F6B" opacity="1.000000" stroke="none" 
	d="
M18.020229,18.988483 
	C17.577541,18.990728 17.134853,18.992973 16.361593,19.005455 
	C16.016289,18.572327 16.001556,18.128960 15.969401,17.354717 
	C15.951981,17.023842 16.428139,16.990297 16.841068,17.215961 
	C17.509411,17.957245 17.764820,18.472866 18.020229,18.988483 
z"/>
<path fill="#BC8358" opacity="1.000000" stroke="none" 
	d="
M15.602388,20.024216 
	C16.119909,20.158333 16.426020,20.343342 16.624176,20.763878 
	C16.344580,20.999756 16.172937,21.000107 16.001297,21.000458 
	C15.735085,20.936724 15.499272,20.814440 15.167094,20.482990 
	C15.040326,20.332375 15.390976,20.075109 15.602388,20.024216 
z"/>
<path fill="#BC8358" opacity="1.000000" stroke="none" 
	d="
M13.497402,18.576344 
	C13.402872,18.648113 13.377880,18.370678 13.377880,18.370678 
	C13.377880,18.370678 13.591931,18.504572 13.497402,18.576344 
z"/>
<path fill="#C09976" opacity="1.000000" stroke="none" 
	d="
M12.321758,19.753765 
	C12.196095,20.071346 12.011340,20.337795 11.676733,20.786280 
	C11.524684,20.705484 11.535260,20.451509 11.809239,19.915504 
	C12.072643,19.633472 12.249893,19.693775 12.321758,19.753765 
z"/>
<path fill="#936436" opacity="1.000000" stroke="none" 
	d="
M22.666622,5.070533 
	C23.167019,4.969752 23.424797,4.998234 24.069603,5.075894 
	C24.456629,5.125072 24.382820,5.549136 24.116396,6.087380 
	C23.682812,7.136459 23.515654,7.647294 23.250942,8.239853 
	C22.984484,8.492702 22.791420,8.624694 22.452278,8.739601 
	C22.330359,8.761647 22.086380,8.804944 22.086380,8.804943 
	C21.818512,8.072144 21.550644,7.339343 21.154125,6.338597 
	C21.491652,5.780366 21.957829,5.490081 22.666622,5.070533 
z"/>
<path fill="#E0AB8A" opacity="1.000000" stroke="none" 
	d="
M21.203346,9.129399 
	C21.203344,9.129399 21.663670,9.025054 21.875025,8.914999 
	C22.086380,8.804944 22.330359,8.761647 22.242229,9.017673 
	C22.120646,9.496847 22.087191,9.719995 22.036560,10.334232 
	C22.015232,11.507165 22.011076,12.289004 22.011280,13.310069 
	C22.015644,13.549294 21.949209,14.023189 21.712685,13.837879 
	C21.304066,13.087022 21.131969,12.521472 20.961838,11.692081 
	C20.935593,11.254619 20.907387,11.080997 20.937958,10.611860 
	C21.065605,9.920697 21.134476,9.525048 21.203346,9.129399 
z"/>
<path fill="#79492C" opacity="1.000000" stroke="none" 
	d="
M21.025110,8.853600 
	C21.134476,9.525048 21.065605,9.920697 20.731140,10.640265 
	C20.465544,10.964184 20.047764,10.991472 20.047764,10.991472 
	C20.005270,10.158496 19.962776,9.325521 19.920002,8.063541 
	C20.228773,7.948959 20.537823,8.263380 21.025110,8.853600 
z"/>
<path fill="#C0A58F" opacity="1.000000" stroke="none" 
	d="
M10.915524,24.738897 
	C10.676618,24.897673 10.421388,24.733126 10.193775,24.215988 
	C10.416578,24.111139 10.642514,24.295197 10.915524,24.738897 
z"/>
<path fill="#F4C794" opacity="1.000000" stroke="none" 
	d="
M16.818485,50.856174 
	C17.300421,49.921440 17.782356,48.986702 18.880501,48.239471 
	C20.659826,49.952862 21.822941,51.478745 22.992327,53.407974 
	C23.026001,54.888660 23.053404,55.966007 23.062809,57.355846 
	C23.076395,58.082848 23.107981,58.497349 23.139566,58.911854 
	C23.139566,58.911854 23.011019,58.988785 22.625671,59.054909 
	C21.736158,59.763878 21.231995,60.406719 20.367146,61.033764 
	C19.022558,61.013058 18.038652,61.008156 17.033949,60.653091 
	C16.720535,59.458431 16.427923,58.613930 16.126110,57.487907 
	C16.129774,56.829266 16.142641,56.452145 16.432312,56.013031 
	C16.544132,55.269897 16.379150,54.588764 16.158676,53.662224 
	C16.053812,53.256508 16.004444,53.096203 15.955078,52.935902 
	C15.955078,52.935902 15.979139,53.007313 16.222183,52.913071 
	C16.582977,52.164608 16.700731,51.510391 16.818485,50.856174 
z"/>
<path fill="#FACBA2" opacity="1.000000" stroke="none" 
	d="
M22.986057,53.004627 
	C21.822941,51.478745 20.659826,49.952862 19.225197,48.197403 
	C19.299232,45.855690 19.644785,43.743557 20.269440,41.308678 
	C20.548542,40.985935 20.978516,40.974033 21.239395,40.796333 
	C21.731138,40.031628 21.962002,39.444626 22.192865,38.857624 
	C22.192865,38.857624 22.622395,38.900852 22.834625,39.190636 
	C23.196917,39.752529 23.346975,40.024639 23.497034,40.296745 
	C23.657661,39.859425 23.818289,39.422108 23.978916,38.984787 
	C23.978916,38.984787 24.437672,38.951355 24.708717,39.218914 
	C24.999434,39.669933 25.019102,39.853397 25.038771,40.036858 
	C25.043205,40.479328 25.047640,40.921803 25.090788,41.694366 
	C24.433857,45.057030 23.738213,48.089607 23.036255,51.794022 
	C23.015312,52.645451 23.000683,52.825039 22.986057,53.004627 
z"/>
<path fill="#F9F8FB" opacity="1.000000" stroke="none" 
	d="
M19.006361,32.557537 
	C19.012091,32.323780 19.014008,32.089993 19.030989,31.301678 
	C19.142208,30.513414 19.234554,30.279646 19.650330,30.042112 
	C20.626717,30.032183 21.279673,30.026016 22.019299,30.344463 
	C22.144379,31.115389 22.182791,31.561699 22.055492,32.292156 
	C21.678608,33.406391 21.467430,34.236477 21.151825,35.034485 
	C21.047398,35.002403 20.833483,34.957920 20.833483,34.957920 
	C20.833483,34.957920 20.429361,34.992683 20.188282,34.660202 
	C19.633589,33.737663 19.319975,33.147598 19.006361,32.557537 
z"/>
<path fill="#DC9760" opacity="1.000000" stroke="none" 
	d="
M16.135311,57.769432 
	C16.427923,58.613930 16.720535,59.458431 17.103456,61.015903 
	C17.422321,62.173679 17.650881,62.618484 17.676643,63.233406 
	C17.355556,63.534466 17.237263,63.665413 17.118969,63.796364 
	C16.654198,63.636677 16.189428,63.476990 15.209112,62.990158 
	C14.155947,62.454594 13.618327,62.246170 13.167079,61.789719 
	C13.567519,61.120350 13.881588,60.699013 14.195658,60.277676 
	C14.195658,60.277676 14.601634,60.146301 15.065402,59.883961 
	C15.731218,59.004227 15.933266,58.386829 16.135311,57.769432 
z"/>
<path fill="#A2704C" opacity="1.000000" stroke="none" 
	d="
M13.538246,32.532452 
	C13.096016,32.292969 13.034916,31.989388 12.836615,31.240170 
	C12.821410,30.123520 12.943407,29.452507 13.323042,28.413143 
	C13.580680,28.044796 14.061213,28.007359 14.295884,28.004288 
	C14.530555,28.001217 14.999935,28.000839 14.999935,28.000839 
	C14.999935,28.000839 15.009903,27.971407 15.075472,28.361954 
	C15.686795,29.282576 16.232550,29.812651 16.778305,30.342724 
	C15.825328,31.051268 14.872352,31.759809 13.538246,32.532452 
z"/>
<path fill="#B38150" opacity="1.000000" stroke="none" 
	d="
M19.326899,30.045877 
	C19.234554,30.279646 19.142208,30.513414 19.047029,31.127003 
	C18.575195,31.071716 18.106195,30.636612 17.331154,29.831190 
	C17.037905,29.250143 17.050695,29.039412 17.319126,28.664545 
	C17.701157,27.712626 17.827547,26.924841 17.953938,26.137058 
	C17.953938,26.137058 17.984510,25.984838 18.222618,25.867764 
	C18.746544,25.608870 18.951021,25.390760 19.320278,25.182980 
	C20.020864,25.534435 20.475328,25.799271 20.948570,26.339771 
	C20.963291,26.983864 20.959232,27.352291 20.650620,27.612095 
	C20.151867,27.409214 19.957674,27.314953 19.617310,27.212673 
	C19.171480,27.332113 19.015581,27.562864 18.998413,28.263393 
	C19.104561,29.101877 19.215731,29.573877 19.326899,30.045877 
z"/>
<path fill="#C68F65" opacity="1.000000" stroke="none" 
	d="
M16.126110,57.487907 
	C15.933266,58.386829 15.731218,59.004227 15.266384,59.812370 
	C15.102617,57.810219 15.201636,55.617325 15.627867,53.180164 
	C16.004444,53.096203 16.053812,53.256508 16.090775,54.021057 
	C16.104082,55.108540 16.129793,55.591782 16.155506,56.075024 
	C16.142641,56.452145 16.129774,56.829266 16.126110,57.487907 
z"/>
<path fill="#E4DBD3" opacity="1.000000" stroke="none" 
	d="
M18.774927,32.815475 
	C19.319975,33.147598 19.633589,33.737663 19.985498,34.663315 
	C19.519119,35.378529 19.014444,35.758156 18.010588,36.513275 
	C18.234779,35.066139 18.389135,34.069775 18.774927,32.815475 
z"/>
<path fill="#F5BD84" opacity="1.000000" stroke="none" 
	d="
M22.159870,38.512863 
	C21.962002,39.444626 21.731138,40.031628 21.245642,40.362724 
	C20.978632,39.231689 20.966257,38.356564 20.953882,37.481438 
	C20.928604,36.851429 20.903326,36.221424 20.855766,35.274666 
	C20.833483,34.957920 21.047398,35.002403 21.322365,35.012535 
	C21.597334,35.022663 21.942722,35.007648 21.983032,35.277515 
	C22.058949,35.725769 22.094555,35.904160 22.130159,36.082546 
	C22.129065,36.777729 22.127970,37.472916 22.159870,38.512863 
z"/>
<path fill="#B37B4E" opacity="1.000000" stroke="none" 
	d="
M17.063488,28.828682 
	C17.050695,29.039412 17.037905,29.250143 17.016720,29.777779 
	C17.008329,30.094683 16.945751,30.269098 16.862028,30.305912 
	C16.232550,29.812651 15.686795,29.282576 15.090711,28.358925 
	C15.444095,27.962761 15.847807,27.960171 16.615559,28.167873 
	C16.979599,28.378168 17.063488,28.828682 17.063488,28.828682 
z"/>
<path fill="#F7B77C" opacity="1.000000" stroke="none" 
	d="
M16.569744,51.031296 
	C16.700731,51.510391 16.582977,52.164608 16.197594,52.884338 
	C16.060308,52.368710 16.190657,51.787563 16.569744,51.031296 
z"/>
<path fill="#DAA36D" opacity="1.000000" stroke="none" 
	d="
M20.684925,37.748211 
	C20.966257,38.356564 20.978632,39.231689 20.984760,40.540424 
	C20.978516,40.974033 20.548542,40.985935 20.335049,40.962700 
	C20.219692,39.964638 20.317831,38.989811 20.684925,37.748211 
z"/>
<path fill="#BEADB2" opacity="1.000000" stroke="none" 
	d="
M13.851693,60.182144 
	C13.881588,60.699013 13.567519,61.120350 12.921212,61.765068 
	C12.588974,61.988445 12.098115,61.948479 12.098115,61.948479 
	C12.085037,61.531010 12.071959,61.113544 12.074003,60.383991 
	C12.561993,60.076809 13.034861,60.081715 13.851693,60.182144 
z"/>
<path fill="#F1BE97" opacity="1.000000" stroke="none" 
	d="
M11.911253,62.198860 
	C12.098115,61.948479 12.588974,61.988445 12.834841,62.013100 
	C13.618327,62.246170 14.155947,62.454594 14.847925,62.916687 
	C13.838327,64.425606 12.674371,65.680862 11.165283,66.992142 
	C10.327408,66.383781 9.834662,65.719383 9.136824,64.911972 
	C9.862616,63.995716 10.793503,63.222481 11.911253,62.198860 
z"/>
<path fill="#FAF8F9" opacity="1.000000" stroke="none" 
	d="
M24.781477,55.863636 
	C25.476641,56.317371 26.171806,56.771107 26.922140,57.550797 
	C26.560980,57.944454 26.144650,58.012157 25.169949,57.960003 
	C24.385834,57.543430 24.160089,57.246719 24.036453,56.739540 
	C24.296141,56.252445 24.510447,56.030632 24.781477,55.863636 
z"/>
<path fill="#DA9D72" opacity="1.000000" stroke="none" 
	d="
M20.727829,61.049564 
	C21.231995,60.406719 21.736158,59.763878 22.561834,59.094093 
	C22.600338,59.918442 22.317331,60.769726 21.681622,61.861397 
	C21.328917,62.101788 21.053926,62.034973 20.962639,61.791470 
	C20.823509,61.381828 20.775669,61.215694 20.727829,61.049564 
z"/>
<path fill="#F6E8DD" opacity="1.000000" stroke="none" 
	d="
M23.934345,56.950008 
	C24.160089,57.246719 24.385834,57.543430 24.854462,57.988411 
	C24.629261,58.399006 24.161177,58.661327 23.416330,58.917755 
	C23.107981,58.497349 23.076395,58.082848 23.275776,57.331650 
	C23.506744,56.994961 23.934347,56.950008 23.934345,56.950008 
z"/>
<path fill="#C07B5C" opacity="1.000000" stroke="none" 
	d="
M21.053926,62.034973 
	C21.053926,62.034973 21.328917,62.101788 21.462955,62.133827 
	C21.596996,62.165867 21.623594,62.401840 21.438805,62.585148 
	C21.254013,62.768456 20.856352,62.906872 20.856352,62.906872 
	C20.667377,62.948406 20.478405,62.989937 20.200722,62.885090 
	C20.425982,62.504135 20.739954,62.269554 21.053926,62.034973 
z"/>
<path fill="#FFE0BA" opacity="1.000000" stroke="none" 
	d="
M20.996567,63.141823 
	C20.856352,62.906872 21.254013,62.768456 21.453285,62.702995 
	C21.990154,62.899834 22.327753,63.162132 22.824909,63.700356 
	C22.812231,63.986439 22.639994,63.996597 22.210903,64.042809 
	C21.681625,63.844830 21.409204,63.610802 20.996567,63.141823 
z"/>
<path fill="#4F596F" opacity="1.000000" stroke="none" 
	d="
M38.308620,74.745033 
	C37.829559,74.859100 37.088882,74.730659 36.171581,74.268524 
	C36.678974,74.124062 37.362991,74.313286 38.308620,74.745033 
z"/>
<path fill="#E2B18F" opacity="1.000000" stroke="none" 
	d="
M17.903641,64.077560 
	C17.596323,64.168617 17.435844,64.083916 17.200216,63.892017 
	C17.237263,63.665413 17.355556,63.534466 17.756718,63.302666 
	C18.039587,63.201813 18.320345,63.580219 18.320345,63.580219 
	C18.320345,63.580219 18.044380,63.913326 17.903641,64.077560 
z"/>
<path fill="#FBC7A2" opacity="1.000000" stroke="none" 
	d="
M18.517105,63.632149 
	C18.320345,63.580219 18.039587,63.201813 17.959513,63.132549 
	C17.650881,62.618484 17.422321,62.173679 17.124256,61.366066 
	C18.038652,61.008156 19.022558,61.013058 20.367146,61.033764 
	C20.775669,61.215694 20.823509,61.381828 20.962639,61.791470 
	C20.739954,62.269554 20.425982,62.504135 19.930244,62.990311 
	C19.403606,63.389294 19.058735,63.536686 18.517105,63.632149 
z"/>
<path fill="#FEE5CF" opacity="1.000000" stroke="none" 
	d="
M26.037655,6.069418 
	C26.460192,6.061059 26.882730,6.052699 27.621023,6.054536 
	C28.419853,6.947033 28.902925,7.829333 29.760929,9.099688 
	C30.375536,9.947061 30.615217,10.406381 30.785812,10.989111 
	C30.716728,11.112522 30.593233,11.367003 30.593233,11.367003 
	C29.938494,11.499354 29.283756,11.631704 28.012009,11.884214 
	C26.986547,11.974822 26.578094,11.945270 26.088642,11.641809 
	C25.669403,10.909621 25.331161,10.451343 24.999973,9.743971 
	C25.007025,9.494880 25.054495,8.998762 25.301195,8.789279 
	C25.711147,7.743003 25.874401,6.906211 26.037655,6.069418 
z"/>
<path fill="#F5BE95" opacity="1.000000" stroke="none" 
	d="
M30.854898,10.865701 
	C30.615217,10.406381 30.375536,9.947061 30.039837,9.245247 
	C30.390442,8.993214 30.837067,8.983673 31.617294,8.964576 
	C31.978832,9.406185 32.006767,9.857350 31.724741,10.633547 
	C31.228151,10.927618 31.041525,10.896660 30.854898,10.865701 
z"/>
<path fill="#F4C09E" opacity="1.000000" stroke="none" 
	d="
M26.169640,11.915716 
	C26.578094,11.945270 26.986547,11.974822 27.701799,12.017731 
	C28.066374,12.315313 28.191685,12.565722 28.546944,12.915377 
	C28.709360,13.048439 28.870678,13.517301 28.924770,13.759162 
	C28.978861,14.001023 28.501947,13.999045 28.010231,14.156220 
	C26.999630,14.895304 26.480743,15.477212 25.632021,16.027500 
	C24.858553,15.983577 24.414923,15.971271 23.974020,15.616951 
	C23.956379,14.596162 23.936008,13.917385 24.226297,13.118530 
	C25.081184,12.637541 25.625412,12.276628 26.169640,11.915716 
z"/>
<path fill="#E2AE82" opacity="1.000000" stroke="none" 
	d="
M30.785812,10.989111 
	C31.041525,10.896660 31.228151,10.927618 31.698090,10.971750 
	C31.690619,11.209586 31.399837,11.434249 30.851145,11.512959 
	C30.593233,11.367003 30.716728,11.112522 30.785812,10.989111 
z"/>
<path fill="#F8BC92" opacity="1.000000" stroke="none" 
	d="
M25.054495,8.998762 
	C25.054495,8.998762 25.007025,9.494880 24.762899,9.753821 
	C24.518774,10.012763 24.044268,9.997485 24.013308,9.657520 
	C23.771063,8.931080 23.559780,8.544603 23.348495,8.158128 
	C23.515654,7.647294 23.682812,7.136459 24.105206,6.302310 
	C24.360439,5.978993 24.737883,6.003665 24.891739,6.389535 
	C25.048559,7.516524 25.051527,8.257644 25.054495,8.998762 
z"/>
<path fill="#FFE0BA" opacity="1.000000" stroke="none" 
	d="
M25.301195,8.789279 
	C25.051527,8.257644 25.048559,7.516524 25.080069,6.406840 
	C25.114544,6.038275 25.576447,6.029538 25.807051,6.049478 
	C25.874401,6.906211 25.711147,7.743003 25.301195,8.789279 
z"/>
<path fill="#EAD5C5" opacity="1.000000" stroke="none" 
	d="
M24.036453,56.739540 
	C23.934347,56.950008 23.506744,56.994961 23.293777,57.019157 
	C23.053404,55.966007 23.026001,54.888660 22.992325,53.407974 
	C23.000683,52.825039 23.015312,52.645451 23.060856,52.196857 
	C23.526484,52.526180 23.961195,53.124504 24.598019,53.917282 
	C24.817564,54.502213 24.834995,54.892696 24.816952,55.573406 
	C24.510447,56.030632 24.296141,56.252445 24.036453,56.739540 
z"/>
<path fill="#C9B4AC" opacity="1.000000" stroke="none" 
	d="
M26.721567,36.153656 
	C27.193066,35.993099 27.418560,36.008373 27.985023,36.054592 
	C27.780884,36.738377 27.235777,37.391224 26.353840,38.032730 
	C26.169863,37.457424 26.322714,36.893456 26.721567,36.153656 
z"/>
<path fill="#C9B4AC" opacity="1.000000" stroke="none" 
	d="
M25.291672,39.867455 
	C25.019102,39.853397 24.999434,39.669933 24.938599,39.211994 
	C25.109203,38.676025 25.320974,38.414539 25.777779,38.082199 
	C25.863400,38.573578 25.703987,39.135815 25.291672,39.867455 
z"/>
<path fill="#E2AE82" opacity="1.000000" stroke="none" 
	d="
M21.942722,35.007648 
	C21.942722,35.007648 21.597334,35.022663 21.426794,35.044617 
	C21.467430,34.236477 21.678608,33.406391 22.248604,32.289787 
	C22.607426,32.003273 22.995129,32.000324 22.995129,32.000324 
	C22.995129,32.000324 23.000153,31.999695 23.006113,32.267654 
	C23.020147,32.712555 23.028223,32.889496 23.056625,33.304070 
	C23.076956,33.541702 23.174595,34.008606 23.174595,34.008606 
	C23.174595,34.008606 23.085672,34.499374 22.780182,34.748070 
	C22.297369,35.000389 22.120047,35.004017 21.942722,35.007648 
z"/>
<path fill="#FDDBB8" opacity="1.000000" stroke="none" 
	d="
M23.746204,38.984863 
	C23.818289,39.422108 23.657661,39.859425 23.497034,40.296745 
	C23.346975,40.024639 23.196917,39.752529 23.047560,39.225994 
	C23.048262,38.971565 23.513493,38.984943 23.746204,38.984863 
z"/>
<path fill="#FDDBB8" opacity="1.000000" stroke="none" 
	d="
M23.355774,33.889229 
	C23.174595,34.008606 23.076956,33.541702 23.270954,33.262089 
	C23.464954,32.982475 23.894741,32.901867 23.894741,32.901867 
	C23.894741,32.901867 23.961466,32.977661 23.993366,33.017578 
	C23.919178,33.333817 23.756407,33.571270 23.355774,33.889229 
z"/>
<path fill="#FACBA2" opacity="1.000000" stroke="none" 
	d="
M21.983032,35.277515 
	C22.120047,35.004017 22.297369,35.000389 22.740784,34.994316 
	C22.943333,35.321754 22.784828,35.596912 22.330761,35.949944 
	C22.094555,35.904160 22.058949,35.725769 21.983032,35.277515 
z"/>
<path fill="#DB9C62" opacity="1.000000" stroke="none" 
	d="
M20.955175,27.720716 
	C20.959232,27.352291 20.963291,26.983864 21.123386,25.995943 
	C21.663351,24.712076 22.047276,24.047705 22.702080,23.496708 
	C23.367908,23.623255 23.762859,23.636431 24.131264,24.091007 
	C24.084444,25.712910 24.064169,26.893406 24.043894,28.073904 
	C24.043894,28.073904 23.994267,28.518167 23.618782,28.763943 
	C22.786850,29.025219 22.330400,29.040720 21.698421,28.850330 
	C21.333652,28.336533 21.144415,28.028624 20.955175,27.720716 
z"/>
<path fill="#DBA37B" opacity="1.000000" stroke="none" 
	d="
M24.248648,27.945585 
	C24.064169,26.893406 24.084444,25.712910 24.422949,24.088898 
	C25.670441,23.367167 26.599701,23.088951 27.579903,23.181805 
	C27.753176,23.770557 27.875509,23.988239 27.997841,24.205919 
	C27.997841,24.205919 28.054258,24.496622 28.065468,24.642290 
	C27.150366,25.341824 26.224052,25.895689 25.164244,26.751726 
	C24.904255,27.358234 24.711807,27.612690 24.248648,27.945585 
z"/>
<path fill="#DAAD86" opacity="1.000000" stroke="none" 
	d="
M21.873953,29.056221 
	C22.330400,29.040720 22.786850,29.025219 23.584068,28.984745 
	C23.699856,29.774740 23.474871,30.589708 23.122509,31.702499 
	C22.995129,32.000324 22.607426,32.003273 22.414314,32.005642 
	C22.182791,31.561699 22.144379,31.115389 22.018599,30.102661 
	C21.931229,29.536245 21.873953,29.056223 21.873953,29.056221 
z"/>
<path fill="#DAAD86" opacity="1.000000" stroke="none" 
	d="
M23.806423,32.699696 
	C23.894741,32.901867 23.464954,32.982475 23.250626,33.024456 
	C23.028223,32.889496 23.020147,32.712555 23.005999,32.270050 
	C23.300545,32.079742 23.539938,32.244091 23.806423,32.699696 
z"/>
<path fill="#93613F" opacity="1.000000" stroke="none" 
	d="
M28.285461,24.081120 
	C27.875509,23.988239 27.753176,23.770557 27.708992,22.992088 
	C27.787142,22.431303 27.945969,21.999794 28.203176,21.956814 
	C28.761700,21.740313 29.063015,21.566790 29.364328,21.393267 
	C29.516665,21.536568 29.669003,21.679871 30.059574,22.028465 
	C29.722897,22.807947 29.147987,23.382133 28.285461,24.081120 
z"/>
<path fill="#F5B7AC" opacity="1.000000" stroke="none" 
	d="
M28.034897,18.113552 
	C28.034897,18.113552 28.139725,18.542282 28.007832,19.058346 
	C26.631187,20.056017 25.386436,20.537624 24.151737,20.626194 
	C24.127295,19.450064 24.092804,18.666971 24.045248,17.654453 
	C24.032181,17.425026 23.974779,16.969028 23.989300,16.978489 
	C24.003822,16.987951 23.970726,16.989672 24.308369,17.004780 
	C25.096302,17.015081 25.546591,17.010275 26.163853,17.260460 
	C26.898848,17.714821 27.466873,17.914186 28.034897,18.113552 
z"/>
<path fill="#FCD3B3" opacity="1.000000" stroke="none" 
	d="
M24.141687,21.019232 
	C25.386436,20.537624 26.631187,20.056017 28.066103,19.271191 
	C28.609062,18.974510 28.961857,18.981047 29.578091,18.982719 
	C29.841530,18.977858 30.303005,19.017847 30.533424,18.996532 
	C30.763844,18.975220 30.741400,19.349546 30.692951,19.530800 
	C30.305119,20.115862 29.965734,20.519670 29.495338,21.158375 
	C29.063015,21.566790 28.761700,21.740313 27.776724,21.966824 
	C25.956501,21.953451 24.819939,21.887089 23.767328,21.602840 
	C23.851280,21.384954 24.141687,21.019232 24.141687,21.019232 
z"/>
<path fill="#E2B18F" opacity="1.000000" stroke="none" 
	d="
M28.030184,17.699644 
	C27.466873,17.914186 26.898848,17.714821 26.158760,17.023678 
	C25.986694,16.531902 25.961857,16.059120 25.961857,16.059120 
	C26.480743,15.477212 26.999630,14.895304 27.771774,14.155443 
	C28.025179,15.093574 28.025324,16.189655 28.030184,17.699644 
z"/>
<path fill="#C2895C" opacity="1.000000" stroke="none" 
	d="
M14.061213,28.007359 
	C14.061213,28.007359 13.580680,28.044796 13.342188,28.071238 
	C13.044770,27.665024 12.985847,27.232370 12.850630,26.482859 
	C12.774339,26.166002 13.232100,26.039770 13.578642,26.334515 
	C13.970526,27.088625 14.015869,27.547991 14.061213,28.007359 
z"/>
<path fill="#CE9F78" opacity="1.000000" stroke="none" 
	d="
M20.959873,11.955923 
	C21.131969,12.521472 21.304066,13.087022 21.814365,14.091778 
	C22.403246,15.013406 22.653925,15.495829 22.593388,15.982756 
	C21.867220,15.982362 21.452269,15.977462 20.877680,15.743124 
	C20.200264,15.347753 19.682487,15.181821 19.115921,15.017836 
	C19.067135,15.019782 18.990728,14.958970 18.990730,14.958970 
	C18.998301,14.515574 19.005871,14.072178 19.280451,13.212447 
	C20.018267,12.516049 20.489071,12.235986 20.959873,11.955923 
z"/>
<path fill="#AA7C59" opacity="1.000000" stroke="none" 
	d="
M20.961838,11.692081 
	C20.489071,12.235986 20.018267,12.516049 19.287096,12.879911 
	C19.017370,12.527663 19.008011,12.091616 19.002953,11.328028 
	C19.180517,10.998883 19.353777,10.997277 19.787401,10.993572 
	C20.047764,10.991472 20.465544,10.964184 20.672361,10.935780 
	C20.907387,11.080997 20.935593,11.254619 20.961838,11.692081 
z"/>
<path fill="#AC7549" opacity="1.000000" stroke="none" 
	d="
M17.021719,16.016949 
	C16.951914,15.836285 16.882109,15.655621 16.662495,15.225546 
	C17.062059,14.949309 17.611429,14.922482 18.575764,14.927313 
	C18.990728,14.958970 19.067135,15.019782 19.144096,15.190247 
	C19.221056,15.360711 19.255688,15.709954 18.883768,15.764931 
	C18.015139,15.885589 17.518429,15.951268 17.021719,16.016949 
z"/>
<path fill="#D8B07B" opacity="1.000000" stroke="none" 
	d="
M19.074156,25.096359 
	C18.951021,25.390760 18.746544,25.608870 18.236851,25.791451 
	C17.694195,25.106047 17.375414,24.379879 17.279339,23.330351 
	C17.502045,23.006990 17.972319,22.981022 18.276304,22.965679 
	C18.778275,22.906694 18.976257,22.863056 19.087738,22.883701 
	C19.001236,22.947985 19.174700,22.829023 19.110176,23.203615 
	C19.055153,24.084257 19.064653,24.590309 19.074156,25.096359 
z"/>
<path fill="#B0784D" opacity="1.000000" stroke="none" 
	d="
M17.972319,22.981022 
	C17.972319,22.981022 17.502045,23.006990 17.267675,23.027807 
	C16.702547,22.568193 16.371790,22.087761 16.021164,21.303894 
	C16.172937,21.000107 16.344580,20.999756 16.773777,20.989958 
	C17.210579,20.975401 17.389826,20.970293 17.801231,21.289549 
	C18.013033,22.069616 17.992676,22.525320 17.972319,22.981022 
z"/>
<path fill="#B45D24" opacity="1.000000" stroke="none" 
	d="
M17.319126,28.664545 
	C17.063488,28.828682 16.979599,28.378168 16.918514,28.156418 
	C17.052931,27.414042 17.248436,26.893415 17.698938,26.254923 
	C17.827547,26.924841 17.701157,27.712626 17.319126,28.664545 
z"/>
<path fill="#A0663F" opacity="1.000000" stroke="none" 
	d="
M14.295883,28.004288 
	C14.015869,27.547991 13.970526,27.088625 13.813499,26.299698 
	C14.119969,26.426201 14.538122,26.882267 14.978106,27.669586 
	C14.999935,28.000839 14.530555,28.001217 14.295883,28.004288 
z"/>
<path fill="#834722" opacity="1.000000" stroke="none" 
	d="
M16.999187,16.256527 
	C17.518429,15.951268 18.015139,15.885589 18.980965,15.998189 
	C19.631535,16.454405 19.812990,16.732338 19.970554,17.413406 
	C19.980476,18.354340 20.014288,18.892138 20.048100,19.429935 
	C19.588478,19.376398 19.128857,19.322861 18.344732,19.128904 
	C17.764820,18.472866 17.509411,17.957245 17.079563,17.206829 
	C16.905128,16.972036 16.976654,16.496107 16.999187,16.256527 
z"/>
<path fill="#834722" opacity="1.000000" stroke="none" 
	d="
M18.550701,20.905951 
	C18.804634,20.473902 19.058569,20.041853 19.860653,19.709816 
	C20.568983,19.931690 20.729162,20.053556 20.972534,20.429539 
	C21.182108,20.809597 21.308493,20.935543 21.539551,21.289053 
	C21.930689,21.681959 22.217159,21.847300 22.442453,22.344070 
	C22.360048,22.899185 22.338820,23.122868 21.920691,23.295177 
	C20.740761,23.105547 19.957729,22.967285 19.174700,22.829025 
	C19.174700,22.829023 19.001236,22.947985 19.055420,22.547018 
	C18.923302,21.732685 18.737001,21.319317 18.550701,20.905951 
z"/>
<path fill="#E7A77B" opacity="1.000000" stroke="none" 
	d="
M20.889343,20.175425 
	C20.729162,20.053556 20.568983,19.931690 20.216156,19.577915 
	C20.023510,19.346003 20.027422,19.389681 20.037762,19.409809 
	C20.014288,18.892138 19.980476,18.354340 20.195086,17.297718 
	C20.641443,16.510117 20.839380,16.241341 21.037317,15.972563 
	C21.452269,15.977462 21.867220,15.982362 22.699369,16.188969 
	C23.116568,16.390676 23.278700,16.823992 22.985752,17.001774 
	C22.423426,17.537565 22.154049,17.895573 21.633701,18.387693 
	C21.218267,19.073011 21.053806,19.624218 20.889343,20.175425 
z"/>
<path fill="#CE9669" opacity="1.000000" stroke="none" 
	d="
M18.439316,20.908600 
	C18.737001,21.319317 18.923302,21.732685 19.141922,22.482735 
	C18.976257,22.863056 18.778275,22.906694 18.276304,22.965679 
	C17.992676,22.525320 18.013033,22.069616 18.069624,21.271774 
	C18.105858,20.929632 18.327930,20.911249 18.439316,20.908600 
z"/>
<path fill="#96653E" opacity="1.000000" stroke="none" 
	d="
M23.250942,8.239853 
	C23.559780,8.544603 23.771063,8.931080 23.680969,9.665379 
	C22.937639,9.989848 22.495686,9.966495 22.053734,9.943140 
	C22.087191,9.719995 22.120646,9.496847 22.364151,8.995626 
	C22.791420,8.624694 22.984484,8.492702 23.250942,8.239853 
z"/>
<path fill="#BB8F6B" opacity="1.000000" stroke="none" 
	d="
M22.036560,10.334232 
	C22.495686,9.966495 22.937639,9.989848 23.711929,10.005343 
	C24.044268,9.997485 24.518774,10.012763 24.755848,10.002913 
	C25.331161,10.451343 25.669403,10.909621 26.088642,11.641809 
	C25.625412,12.276628 25.081184,12.637541 23.909273,13.080450 
	C22.856699,13.131913 22.431808,13.101379 22.006918,13.070845 
	C22.011076,12.289004 22.015232,11.507165 22.036560,10.334232 
z"/>
<path fill="#FDDBB8" opacity="1.000000" stroke="none" 
	d="
M22.011280,13.310069 
	C22.431808,13.101379 22.856699,13.131913 23.598614,13.200528 
	C23.936008,13.917385 23.956379,14.596162 23.963585,15.874998 
	C23.957186,16.646595 23.963955,16.818134 23.970726,16.989672 
	C23.970726,16.989672 24.003822,16.987951 23.815338,16.942120 
	C23.626854,16.896286 23.278700,16.823992 23.278700,16.823992 
	C23.278700,16.823992 23.116568,16.390676 23.010586,16.184464 
	C22.653925,15.495829 22.403246,15.013406 22.050888,14.277086 
	C21.949209,14.023189 22.015644,13.549294 22.011280,13.310069 
z"/>
<path fill="#F7B77C" opacity="1.000000" stroke="none" 
	d="
M16.432310,56.013031 
	C16.129793,55.591782 16.104082,55.108540 16.146269,54.266464 
	C16.379150,54.588764 16.544132,55.269897 16.432310,56.013031 
z"/>
<path fill="#F5EAE3" opacity="1.000000" stroke="none" 
	d="
M21.698421,28.850330 
	C21.873953,29.056223 21.931229,29.536245 21.931931,29.778048 
	C21.279673,30.026016 20.626717,30.032183 19.650330,30.042112 
	C19.215731,29.573877 19.104561,29.101877 19.205341,28.113899 
	C19.532688,27.472179 19.648085,27.346436 19.763483,27.220692 
	C19.957674,27.314953 20.151867,27.409214 20.650620,27.612095 
	C21.144415,28.028624 21.333652,28.336533 21.698421,28.850330 
z"/>
<path fill="#CE9669" opacity="1.000000" stroke="none" 
	d="
M19.110176,23.203617 
	C19.957729,22.967285 20.740761,23.105547 21.943558,23.319530 
	C22.363325,23.395254 22.431198,23.383333 22.431198,23.383333 
	C22.047276,24.047705 21.663351,24.712076 21.104609,25.720276 
	C20.475328,25.799271 20.020864,25.534435 19.320278,25.182980 
	C19.064653,24.590309 19.055153,24.084257 19.110176,23.203617 
z"/>
<path fill="#DB9C62" opacity="1.000000" stroke="none" 
	d="
M19.617310,27.212673 
	C19.648085,27.346436 19.532688,27.472179 19.210365,27.747416 
	C19.015581,27.562864 19.171480,27.332113 19.617310,27.212673 
z"/>
<path fill="#DBA37B" opacity="1.000000" stroke="none" 
	d="
M24.308369,17.004780 
	C23.963955,16.818134 23.957186,16.646595 23.960854,16.217010 
	C24.414923,15.971271 24.858553,15.983577 25.632021,16.027500 
	C25.961857,16.059120 25.986694,16.531902 25.991787,16.768684 
	C25.546591,17.010275 25.096302,17.015081 24.308369,17.004780 
z"/>
<path fill="#F8E9C5" opacity="1.000000" stroke="none" 
	d="
M22.702080,23.496708 
	C22.431198,23.383333 22.363325,23.395254 22.340458,23.370901 
	C22.338820,23.122868 22.360048,22.899185 22.466507,22.364487 
	C22.551735,22.053469 22.597828,22.098444 22.864117,22.009087 
	C23.314730,21.886728 23.499052,21.853727 23.683376,21.820726 
	C24.819939,21.887089 25.956501,21.953451 27.519516,22.009804 
	C27.945969,21.999794 27.787142,22.431303 27.658052,22.621019 
	C26.599701,23.088951 25.670441,23.367167 24.449493,23.647493 
	C23.762859,23.636431 23.367908,23.623255 22.702080,23.496708 
z"/>
<path fill="#B3704A" opacity="1.000000" stroke="none" 
	d="
M23.767328,21.602840 
	C23.499052,21.853727 23.314730,21.886728 22.948563,21.747583 
	C22.472864,21.404276 22.179008,21.233112 22.012924,20.749170 
	C22.122835,19.987932 22.104979,19.539474 22.315372,18.910604 
	C23.048521,18.448090 23.553419,18.165983 24.058315,17.883879 
	C24.092804,18.666971 24.127295,19.450064 24.151737,20.626194 
	C24.141687,21.019232 23.851280,21.384954 23.767328,21.602840 
z"/>
<path fill="#E2AE82" opacity="1.000000" stroke="none" 
	d="
M24.045248,17.654453 
	C23.553419,18.165983 23.048521,18.448090 22.256714,18.702827 
	C21.969803,18.675463 21.884672,18.253582 21.884672,18.253582 
	C22.154049,17.895573 22.423426,17.537565 22.985752,17.001774 
	C23.278700,16.823992 23.626854,16.896286 23.800816,16.932657 
	C23.974779,16.969028 24.032181,17.425026 24.045248,17.654453 
z"/>
<path fill="#EBB38E" opacity="1.000000" stroke="none" 
	d="
M20.877680,15.743124 
	C20.839380,16.241341 20.641443,16.510117 20.218975,16.894583 
	C19.812990,16.732338 19.631535,16.454405 19.352884,15.943213 
	C19.255688,15.709954 19.221056,15.360711 19.192883,15.188300 
	C19.682487,15.181821 20.200264,15.347753 20.877680,15.743124 
z"/>
<path fill="#FFC396" opacity="1.000000" stroke="none" 
	d="
M21.633701,18.387693 
	C21.884672,18.253582 21.969803,18.675463 22.028461,18.883240 
	C22.104979,19.539474 22.122835,19.987932 21.901556,20.757059 
	C21.662418,21.077726 21.434879,21.061487 21.434879,21.061487 
	C21.308493,20.935543 21.182108,20.809597 20.972534,20.429539 
	C21.053806,19.624218 21.218267,19.073011 21.633701,18.387693 
z"/>
<path fill="#FCD3B3" opacity="1.000000" stroke="none" 
	d="
M21.539551,21.289053 
	C21.434879,21.061487 21.662418,21.077726 21.773785,21.069838 
	C22.179008,21.233112 22.472864,21.404276 22.682274,21.836941 
	C22.597828,22.098444 22.551735,22.053469 22.527683,22.033054 
	C22.217159,21.847300 21.930689,21.681959 21.539551,21.289053 
z"/>
</svg>